<svg width="382" height="131" viewBox="0 0 382 131" fill="none" xmlns="http://www.w3.org/2000/svg">
<g clip-path="url(#clip0_2335_4420)">
<path d="M17.0001 32V92H1.40008V32H17.0001ZM9.20008 0.800003C11.9201 0.800003 14.1201 1.6 15.8001 3.2C17.4801 4.8 18.3201 6.88 18.3201 9.44C18.3201 12 17.4801 14.12 15.8001 15.8C14.1201 17.4 11.9201 18.2 9.20008 18.2C6.48008 18.2 4.28008 17.4 2.60008 15.8C0.920079 14.12 0.0800781 12 0.0800781 9.44C0.0800781 6.88 0.920079 4.8 2.60008 3.2C4.28008 1.6 6.48008 0.800003 9.20008 0.800003ZM74.5439 58.04C74.5439 53.56 73.5039 50.16 71.4239 47.84C69.3439 45.44 66.3839 44.24 62.5439 44.24C58.5439 44.24 55.2239 45.52 52.5839 48.08C50.0239 50.64 48.7439 54.36 48.7439 59.24V92H33.1439V32H48.7439V41.24C50.9039 37.8 53.6639 35.2 57.0238 33.44C60.4639 31.68 64.2239 30.8 68.3039 30.8C74.8639 30.8 80.1439 33 84.1439 37.4C88.1439 41.72 90.1439 47.72 90.1439 55.4V92H74.5439V58.04ZM125.991 30.8C130.311 30.8 134.551 31.4 138.711 32.6C142.871 33.72 146.511 35.28 149.631 37.28L144.471 48.68C141.671 47.08 138.631 45.8 135.351 44.84C132.071 43.88 128.951 43.4 125.991 43.4C122.871 43.4 120.551 43.92 119.031 44.96C117.591 45.92 116.871 47.08 116.871 48.44C116.871 49.8 117.751 51 119.511 52.04C121.271 53 124.911 54.16 130.431 55.52C137.631 57.28 142.951 59.68 146.391 62.72C149.831 65.76 151.551 69.76 151.551 74.72C151.551 78.24 150.551 81.4 148.551 84.2C146.631 87 143.791 89.2 140.031 90.8C136.351 92.4 131.911 93.2 126.711 93.2C121.671 93.2 116.871 92.6 112.311 91.4C107.831 90.12 103.911 88.28 100.551 85.88L104.871 73.28C108.151 75.52 111.751 77.32 115.671 78.68C119.671 79.96 123.351 80.6 126.711 80.6C129.671 80.6 131.951 80.16 133.551 79.28C135.151 78.32 135.951 77.16 135.951 75.8C135.951 74.44 134.991 73.16 133.071 71.96C131.151 70.76 127.591 69.52 122.391 68.24C115.111 66.4 109.751 64 106.311 61.04C102.951 58 101.271 54.12 101.271 49.4C101.271 43.96 103.431 39.52 107.751 36.08C112.071 32.56 118.151 30.8 125.991 30.8ZM179.422 32V92H163.822V32H179.422ZM171.622 0.800003C174.342 0.800003 176.542 1.6 178.222 3.2C179.902 4.8 180.742 6.88 180.742 9.44C180.742 12 179.902 14.12 178.222 15.8C176.542 17.4 174.342 18.2 171.622 18.2C168.902 18.2 166.702 17.4 165.022 15.8C163.342 14.12 162.502 12 162.502 9.44C162.502 6.88 163.342 4.8 165.022 3.2C166.702 1.6 168.902 0.800003 171.622 0.800003ZM223.046 120.8C217.366 120.8 212.086 120 207.206 118.4C202.406 116.8 198.246 114.68 194.726 112.04L200.486 99.8C206.566 104.76 213.766 107.24 222.086 107.24C227.846 107.24 232.246 105.72 235.286 102.68C238.406 99.64 239.966 95.28 239.966 89.6V84.68C237.726 87.4 234.966 89.52 231.686 91.04C228.486 92.48 224.886 93.2 220.886 93.2C215.286 93.2 210.286 91.92 205.886 89.36C201.486 86.72 198.046 83.04 195.566 78.32C193.166 73.6 191.966 68.16 191.966 62C191.966 55.84 193.166 50.4 195.566 45.68C198.046 40.96 201.486 37.32 205.886 34.76C210.286 32.12 215.286 30.8 220.886 30.8C224.966 30.8 228.646 31.6 231.926 33.2C235.286 34.72 238.086 36.92 240.326 39.8L240.926 32H255.566V89.6C255.566 95.84 254.246 101.32 251.606 106.04C248.966 110.76 245.166 114.4 240.206 116.96C235.326 119.52 229.606 120.8 223.046 120.8ZM224.366 79.64C229.406 79.64 233.446 78.04 236.486 74.84C239.606 71.56 241.166 67.28 241.166 62C241.166 56.64 239.606 52.36 236.486 49.16C233.446 45.88 229.406 44.24 224.366 44.24C219.326 44.24 215.246 45.88 212.126 49.16C209.086 52.36 207.566 56.64 207.566 62C207.566 67.28 209.086 71.56 212.126 74.84C215.246 78.04 219.326 79.64 224.366 79.64ZM271.152 0.800003H286.752V41.24C288.912 37.8 291.672 35.2 295.032 33.44C298.472 31.68 302.232 30.8 306.312 30.8C312.872 30.8 318.152 33 322.152 37.4C326.152 41.72 328.152 47.72 328.152 55.4V92H312.552V58.04C312.552 53.56 311.512 50.16 309.432 47.84C307.352 45.44 304.392 44.24 300.552 44.24C296.552 44.24 293.232 45.52 290.592 48.08C288.032 50.64 286.752 54.36 286.752 59.24V92H271.152V0.800003ZM336.279 32H338.919C342.199 32 344.679 31.4 346.359 30.2C348.039 28.92 349.359 26.76 350.319 23.72L352.719 15.2H362.319V32H380.079V45.44H362.319V71.24C362.319 76.84 365.159 79.64 370.839 79.64C373.319 79.64 375.639 79.04 377.799 77.84L380.079 89.72C376.159 92.04 371.439 93.2 365.919 93.2C359.759 93.2 354.999 91.6 351.639 88.4C348.359 85.12 346.719 80.32 346.719 74V45.44H336.279V32Z" fill="white"/>
<path d="M274.944 111.104C275.664 110.208 276.624 109.76 277.824 109.76C278.848 109.76 279.752 110.016 280.536 110.528C281.32 111.024 281.928 111.744 282.36 112.688C282.792 113.632 283.008 114.736 283.008 116C283.008 117.264 282.792 118.368 282.36 119.312C281.928 120.256 281.32 120.984 280.536 121.496C279.752 121.992 278.848 122.24 277.824 122.24C276.592 122.24 275.6 121.752 274.848 120.776L274.656 122H271.344V103.76H274.944V111.104ZM277.056 119.12C277.792 119.12 278.368 118.848 278.784 118.304C279.2 117.744 279.408 116.976 279.408 116C279.408 115.024 279.2 114.264 278.784 113.72C278.368 113.16 277.792 112.88 277.056 112.88C276.32 112.88 275.744 113.16 275.328 113.72C274.912 114.264 274.704 115.024 274.704 116C274.704 116.976 274.912 117.744 275.328 118.304C275.744 118.848 276.32 119.12 277.056 119.12ZM284.852 124.496C285.748 124.448 286.42 124.256 286.868 123.92C287.316 123.6 287.66 123.136 287.9 122.528L288.068 122L283.364 110H287.42L290.108 117.944L292.316 110H296.372L292.172 122L291.692 123.32C291.26 124.376 290.804 125.2 290.324 125.792C289.844 126.4 289.244 126.848 288.524 127.136C287.804 127.44 286.876 127.632 285.74 127.712L284.852 124.496Z" fill="white"/>
<mask id="mask0_2335_4420" style="mask-type:luminance" maskUnits="userSpaceOnUse" x="305" y="100" width="77" height="31">
<path d="M382 100H305V131H382V100Z" fill="white"/>
</mask>
<g mask="url(#mask0_2335_4420)">
<path d="M318.781 101.318C320.199 102.136 321.45 103.186 322.15 104.676L327.89 101.318L334.584 104.478L336.106 110.256L322.404 127.056L319.481 129.794L308.561 116.628C308.001 115.999 307.45 115.285 306.916 114.492C306.356 113.709 305.901 112.882 305.56 112.012C305.184 111.143 305 110.29 305 109.446C305 107.526 305.367 105.873 306.12 104.478C306.838 103.083 307.87 102.006 309.2 101.24C310.539 100.482 312.114 100.095 313.934 100.095C315.727 100.095 317.337 100.508 318.781 101.318Z" fill="#BD114F"/>
<path d="M320.006 114.949H310.924V126.023H320.006V114.949Z" fill="#BD114F"/>
<path d="M319.84 130.311C320.242 130.699 320.741 130.897 321.327 130.897L336.159 130.69C336.753 130.69 337.296 130.613 337.646 130.096C338.101 129.424 336.894 126.849 335.301 126.669C333.717 126.479 329.264 126.47 326.726 126.247C326.525 126.229 326.472 125.945 326.542 125.756C326.726 125.222 334.111 116.619 334.111 116.619C334.671 115.991 335.222 115.276 335.756 114.492C336.316 113.7 336.771 112.874 337.121 112.004C337.489 111.134 337.681 110.282 337.681 109.438C337.681 107.517 337.305 105.864 336.552 104.469C335.835 103.074 334.802 101.998 333.472 101.24C332.133 100.474 330.559 100.095 328.738 100.095C326.954 100.095 325.335 100.499 323.891 101.318C322.474 102.127 321.222 103.186 320.522 104.667C320.111 105.537 319.875 106.949 320.111 107.905C320.312 108.689 320.514 108.887 321.117 109.085C321.721 109.283 321.914 108.852 322.115 107.905C322.316 106.958 322.649 105.89 323.121 105.141C323.725 104.194 324.836 103.496 325.729 103.169C326.481 102.893 327.732 102.661 328.738 102.773C330.532 102.971 331.801 103.599 332.737 104.667C333.682 105.735 334.409 107.509 334.199 108.852L334.19 108.895C334.067 109.722 333.892 110.85 333.472 111.651C333.044 112.469 331.74 114.079 330.935 115.001L319.84 127.469C319.472 127.84 319.28 128.305 319.28 128.89C319.28 129.441 319.472 129.915 319.84 130.311Z" fill="#FAFAFA"/>
<path d="M308.85 119.547C308.85 119.452 308.85 119.117 308.85 118.557C308.876 117.963 308.885 117.3 308.885 116.568C308.911 115.81 308.911 115.069 308.885 114.363C308.885 113.631 308.859 113.063 308.815 112.658C308.762 112.142 308.754 111.677 308.78 111.272C308.824 110.876 308.85 110.419 308.85 109.929C308.85 109.593 308.859 109.3 308.885 109.042C308.911 108.757 308.972 108.516 309.069 108.327C309.165 108.112 309.314 107.965 309.532 107.87C309.751 107.75 310.066 107.69 310.469 107.69C310.854 107.69 311.23 107.819 311.589 108.077C311.974 108.344 312.201 108.697 312.271 109.145L312.814 116.206L312.927 125.23L317.757 125.084C317.924 125.084 318.169 125.17 318.484 125.334C318.816 125.472 318.982 125.652 318.982 125.868C318.982 126.057 318.904 126.221 318.729 126.359C318.562 126.479 318.361 126.591 318.116 126.686C317.906 126.755 317.67 126.815 317.434 126.858C317.215 126.884 317.057 126.892 316.961 126.892C316.769 126.918 316.48 126.944 316.095 126.97C315.71 126.97 315.307 126.97 314.87 126.97C314.467 126.97 314.065 126.97 313.68 126.97C313.295 126.97 313.006 126.97 312.814 126.97C312.577 127.082 312.289 127.134 311.947 127.108C311.615 127.082 311.335 127.073 311.125 127.073H310.005C309.812 127.073 309.594 127.022 309.357 126.927C309.139 126.815 308.972 126.686 308.85 126.539V119.547Z" fill="#FAFAFA"/>
<path d="M340.228 125.153C340.228 124.705 340.236 124.275 340.263 123.87C340.306 123.474 340.333 123.061 340.333 122.63V121.562C340.333 121.468 340.324 121.304 340.298 121.071C340.271 120.813 340.245 120.546 340.228 120.288C340.228 120.004 340.21 119.745 340.184 119.504C340.166 119.272 340.149 119.108 340.149 119.013V115.285V111.694C340.149 111.031 340.184 110.394 340.263 109.782C340.359 109.145 340.376 108.516 340.333 107.896C340.814 107.354 341.391 107.027 342.065 106.906C342.739 106.76 343.421 106.691 344.121 106.691C345.128 106.691 346.046 106.889 346.86 107.294C347.683 107.672 348.365 108.361 348.916 109.352C349.328 110.135 349.616 110.867 349.783 111.556C349.949 112.219 350.036 112.986 350.036 113.864V114.854C349.844 115.448 349.625 115.991 349.389 116.49C349.17 116.964 348.82 117.403 348.339 117.799C348.173 117.92 347.971 118.04 347.726 118.161C347.49 118.256 347.315 118.359 347.219 118.479C348.138 118.996 348.794 119.616 349.205 120.322C349.643 121.037 349.853 121.889 349.853 122.88V123.801C349.809 124.085 349.686 124.404 349.494 124.765C349.301 125.093 349.109 125.351 348.916 125.541C348.435 125.945 348.015 126.238 347.656 126.428C347.298 126.617 346.93 126.763 346.571 126.858C346.213 126.953 345.828 126.996 345.416 126.996C345.014 126.996 344.515 126.996 343.938 126.996H342.643C342.45 126.953 342.301 126.901 342.205 126.858C342.135 126.806 342.065 126.763 341.995 126.712C341.943 126.643 341.873 126.583 341.776 126.539C341.706 126.462 341.584 126.393 341.418 126.324C341.269 126.255 341.138 126.204 341.015 126.178C340.919 126.161 340.823 126.135 340.726 126.109C340.656 126.083 340.569 126.049 340.473 126.006C340.403 125.954 340.324 125.876 340.228 125.756V125.153ZM343.255 124.585L343.325 125.041C343.474 125.093 343.605 125.153 343.728 125.222C343.841 125.274 343.955 125.317 344.051 125.368C344.148 125.411 344.244 125.446 344.34 125.472H344.41C344.821 125.472 345.224 125.317 345.635 125.007C346.046 124.705 346.248 124.301 346.248 123.801C346.248 123.543 346.274 123.267 346.318 122.983C346.396 122.699 346.37 122.277 346.248 121.709C346.125 121.02 345.793 120.512 345.241 120.184C344.681 119.849 344.121 119.685 343.544 119.685H343.325C343.281 120.374 343.255 120.985 343.255 121.528C343.255 122.079 343.255 122.682 343.255 123.345V124.585ZM343.255 117.661C344.288 117.257 345.014 116.706 345.416 115.991C345.854 115.285 346.064 114.398 346.064 113.33C346.064 112.925 346.055 112.434 346.029 111.84C346.011 111.246 345.924 110.678 345.784 110.135C345.635 109.593 345.408 109.128 345.093 108.749C344.778 108.344 344.34 108.146 343.763 108.146C343.255 108.146 342.748 108.241 342.24 108.43V108.714C342.24 109.093 342.284 109.446 342.354 109.782C342.45 110.109 342.52 110.419 342.573 110.704L343.255 117.661ZM351.76 123.663C351.708 122.664 351.62 121.623 351.506 120.538C351.41 119.444 351.288 118.411 351.148 117.412V114.785V112.124C351.148 112.073 351.148 111.935 351.148 111.694C351.165 111.461 351.183 111.203 351.183 110.919C351.2 110.635 351.226 110.359 351.253 110.101C351.279 109.817 351.296 109.619 351.323 109.498C351.393 108.904 351.699 108.465 352.224 108.181C352.775 107.896 353.405 107.707 354.105 107.612C354.823 107.5 355.54 107.449 356.266 107.474C356.984 107.474 357.561 107.474 357.999 107.474H357.78C357.946 107.474 358.174 107.509 358.463 107.578C358.778 107.629 358.935 107.759 358.935 107.965C358.935 108.137 358.865 108.267 358.716 108.361C358.603 108.43 358.454 108.465 358.288 108.465C358.288 108.465 358.139 108.491 357.85 108.534C357.561 108.559 357.229 108.611 356.844 108.68C356.485 108.723 356.118 108.783 355.759 108.861C355.426 108.904 355.216 108.938 355.146 108.964C354.831 109.033 354.63 109.197 354.534 109.464V110.351V111.306C354.56 111.685 354.586 112.167 354.604 112.762C354.656 113.356 354.691 113.941 354.718 114.536C354.735 115.104 354.761 115.612 354.788 116.06C354.814 116.49 354.823 116.714 354.823 116.74L354.971 117.128C355.444 117.128 355.943 117.119 356.45 117.093C356.949 117.05 357.421 117.007 357.85 116.99C358.218 116.964 358.541 117.024 358.83 117.162C359.136 117.308 359.294 117.498 359.294 117.73C359.294 117.92 359.224 118.075 359.075 118.195C358.961 118.29 358.804 118.368 358.611 118.445C358.419 118.488 358.226 118.54 358.034 118.583C357.841 118.609 357.693 118.634 357.596 118.652C357.238 118.703 356.975 118.746 356.809 118.798C356.643 118.824 356.485 118.841 356.336 118.867C356.196 118.867 356.021 118.867 355.829 118.867C355.663 118.867 355.4 118.867 355.041 118.867C355.041 119.788 355.024 120.701 355.006 121.605C354.98 122.475 354.971 123.379 354.971 124.301C355.33 124.301 355.601 124.301 355.794 124.301C355.986 124.275 356.17 124.266 356.336 124.266C356.503 124.24 356.686 124.232 356.879 124.232C357.098 124.206 357.386 124.197 357.745 124.197C357.868 124.197 358.034 124.206 358.253 124.232C358.489 124.249 358.716 124.301 358.935 124.369C359.171 124.421 359.381 124.499 359.548 124.619C359.714 124.74 359.801 124.903 359.801 125.119C359.801 125.308 359.731 125.472 359.583 125.609C359.443 125.73 359.259 125.842 359.04 125.937C358.848 126.006 358.655 126.074 358.463 126.143C358.27 126.195 358.13 126.229 358.034 126.255H355.759H354.971C354.919 126.255 354.814 126.255 354.639 126.255C354.499 126.229 354.333 126.221 354.14 126.221C353.965 126.195 353.799 126.178 353.633 126.178C353.484 126.161 353.379 126.143 353.309 126.143C353.046 126.143 352.758 126.1 352.443 126.006C352.128 125.885 351.9 125.721 351.76 125.506V123.663ZM360.186 125.894C360.186 125.498 360.213 124.955 360.256 124.266C360.335 123.551 360.405 122.871 360.475 122.208C360.545 121.519 360.606 120.925 360.659 120.434C360.729 119.935 360.764 119.676 360.764 119.651L362.138 109.67C362.138 109.653 362.146 109.558 362.173 109.386C362.216 109.222 362.269 109.033 362.313 108.818C362.365 108.611 362.409 108.404 362.461 108.215C362.505 108.008 362.549 107.853 362.566 107.759C362.593 107.638 362.619 107.509 362.645 107.362C362.689 107.199 362.733 107.044 362.785 106.906C362.829 106.76 362.908 106.648 363.004 106.553C363.1 106.458 363.231 106.407 363.398 106.407H364.771C364.964 106.407 365.13 106.501 365.27 106.691C365.419 106.88 365.524 107.061 365.603 107.225C365.673 107.44 365.769 107.707 365.891 108.043C366.031 108.344 366.18 108.654 366.32 108.964C366.469 109.274 366.583 109.558 366.679 109.817C366.775 110.049 366.828 110.178 366.828 110.204C367.641 112.831 368.464 115.44 369.278 118.014C370.1 120.598 370.756 123.095 371.264 125.506V125.687C371.264 126.066 371.08 126.35 370.721 126.539C370.389 126.729 370.083 126.824 369.82 126.824C369.724 126.824 369.566 126.824 369.348 126.824C369.138 126.798 368.901 126.772 368.665 126.746C368.446 126.703 368.245 126.634 368.053 126.539C367.886 126.445 367.79 126.316 367.764 126.143L366.749 120.675C366.276 120.675 365.681 120.693 364.981 120.718C364.316 120.736 363.721 120.753 363.214 120.753L363.074 120.856C362.978 122.75 362.75 124.628 362.391 126.505L362.243 126.712C362.199 126.763 362.085 126.867 361.919 127.03C361.779 127.177 361.683 127.271 361.63 127.314H361.525C361.14 127.314 360.816 127.211 360.545 126.996C360.309 126.789 360.186 126.548 360.186 126.29V125.894ZM366.215 118.729V118.195C366.189 118.101 366.154 117.946 366.101 117.73C366.084 117.498 366.04 117.257 365.996 117.024C365.944 116.783 365.9 116.576 365.848 116.387C365.83 116.172 365.804 116.025 365.778 115.956C365.734 115.741 365.638 115.414 365.489 114.966C365.366 114.492 365.226 114.002 365.06 113.511C364.911 113.011 364.771 112.538 364.623 112.09C364.483 111.634 364.369 111.306 364.299 111.091L363.293 118.729H366.215ZM374.633 125.472V124.585C374.633 124.301 374.633 123.853 374.633 123.233C374.659 122.596 374.676 121.889 374.676 121.106C374.694 120.322 374.72 119.504 374.746 118.652C374.773 117.782 374.79 116.955 374.816 116.172C374.843 115.388 374.869 114.691 374.886 114.079C374.913 113.459 374.939 113.003 374.965 112.693C374.965 112.099 375 111.522 375.07 110.953C375.166 110.385 375.201 109.782 375.175 109.145H372.253C372.086 109.145 371.894 109.102 371.675 109.033C371.483 108.938 371.386 108.801 371.386 108.611C371.386 108.439 371.43 108.327 371.5 108.249C371.596 108.181 371.736 108.112 371.929 108.043C372.655 108.043 373.338 108.017 373.985 107.965C374.659 107.922 375.324 107.871 375.971 107.827C376.619 107.759 377.284 107.698 377.958 107.647C378.631 107.604 379.34 107.578 380.084 107.578H381.309L382 107.931V108.181C382 108.422 381.851 108.585 381.563 108.68C381.3 108.775 380.976 108.844 380.591 108.895C380.11 108.964 379.603 108.99 379.078 108.964C378.57 108.938 378.229 108.964 378.063 109.033V112.012C378.063 113.364 378.098 114.699 378.176 116.025C378.246 117.351 378.281 118.652 378.281 119.935C378.281 120.546 378.281 121.132 378.281 121.674C378.308 122.217 378.316 122.751 378.316 123.267C378.316 123.793 378.29 124.309 378.246 124.834C378.22 125.351 378.159 125.911 378.063 126.505C377.94 126.643 377.791 126.763 377.599 126.858C377.406 126.927 377.223 126.987 377.056 127.03H376.155C375.884 127.03 375.613 127.03 375.324 127.03C375.035 127.013 374.808 126.832 374.633 126.505V125.472Z" fill="#FAFAFA"/>
</g>
</g>
<defs>
<clipPath id="clip0_2335_4420">
<rect width="382" height="131" fill="white"/>
</clipPath>
</defs>
</svg>
