<svg width="20" height="20" viewBox="0 0 20 20" fill="none" xmlns="http://www.w3.org/2000/svg">
<path d="M18.2516 18H1.75164C1.38193 18 1.04162 17.8025 0.857543 17.4823C0.67398 17.1621 0.675011 16.7682 0.861152 16.449L9.11115 2.0115C9.29575 1.69491 9.63503 1.5 10.0016 1.5C10.3682 1.5 10.7075 1.69491 10.8926 2.0115L19.1426 16.449C19.3288 16.7682 19.3298 17.1621 19.1462 17.4823C18.9627 17.8025 18.6208 18 18.2516 18Z" fill="#EEB300"></path>
<path d="M8.96973 14.9795C8.96973 14.8408 8.99396 14.7139 9.04346 14.5948C9.09193 14.4773 9.16154 14.3752 9.25126 14.2896C9.33943 14.2029 9.44823 14.1354 9.57301 14.0869C9.69882 14.0395 9.8401 14.0142 9.99788 14.0142C10.1557 14.0142 10.298 14.0395 10.4248 14.0869C10.5537 14.1354 10.6625 14.2029 10.7507 14.2896C10.8409 14.3752 10.9105 14.4773 10.9585 14.5948C11.008 14.7139 11.0322 14.8408 11.0322 14.9795C11.0322 15.1187 11.008 15.2455 10.9585 15.361C10.91 15.477 10.8404 15.5771 10.7507 15.6642C10.6625 15.7498 10.5537 15.8168 10.4248 15.8663C10.298 15.9138 10.1557 15.9375 9.99788 15.9375C9.83959 15.9375 9.69882 15.9138 9.57301 15.8658C9.44823 15.8163 9.33943 15.7493 9.25126 15.6637C9.16102 15.5766 9.09141 15.4765 9.04346 15.3605C8.99396 15.245 8.96973 15.1182 8.96973 14.9795ZM10.7641 12.8438H9.23115L9.01407 6.65625H10.9807L10.7641 12.8438Z" fill="#272A2F"></path>
</svg>