<svg width="312" height="144" viewBox="0 0 312 144" fill="none" xmlns="http://www.w3.org/2000/svg">
<path fill-rule="evenodd" clip-rule="evenodd" d="M72.5 0C76.5 13 83.5 20 96.5 24C83.5 28 76.5 35 72.5 48C68.5 35 61.5 28 48.5 24C61.5 20 68.5 13 72.5 0Z" fill="#F0D8BD"/>
<path d="M279.836 143.4C273.303 143.4 267.609 142.187 262.756 139.76C257.996 137.24 254.309 133.74 251.696 129.26C249.176 124.687 247.916 119.32 247.916 113.16V68.64C247.916 62.48 249.176 57.16 251.696 52.68C254.309 48.1067 257.996 44.6067 262.756 42.18C267.609 39.66 273.303 38.4 279.836 38.4C286.463 38.4 292.156 39.66 296.916 42.18C301.676 44.6067 305.316 48.1067 307.836 52.68C310.449 57.16 311.756 62.4334 311.756 68.5V113.16C311.756 119.32 310.449 124.687 307.836 129.26C305.316 133.74 301.676 137.24 296.916 139.76C292.156 142.187 286.463 143.4 279.836 143.4ZM279.836 128C284.596 128 288.189 126.74 290.616 124.22C293.043 121.607 294.256 117.92 294.256 113.16V68.64C294.256 63.7867 293.043 60.1 290.616 57.58C288.189 55.06 284.596 53.8 279.836 53.8C275.076 53.8 271.483 55.06 269.056 57.58C266.629 60.1 265.416 63.7867 265.416 68.64V113.16C265.416 117.92 266.629 121.607 269.056 124.22C271.576 126.74 275.169 128 279.836 128Z" fill="#F0D8BD"/>
<path d="M167.091 142V55.8C167.091 46.9634 174.254 39.8 183.091 39.8H230.651V56.04H188.311C186.101 56.04 184.311 57.8309 184.311 60.04V83.34H227.011V99.58H184.591V142H167.091Z" fill="#F0D8BD"/>
<path d="M85.1453 142V55.8C85.1453 46.9634 92.3087 39.8 101.145 39.8H148.705V56.04H106.365C104.156 56.04 102.365 57.8309 102.365 60.04V83.34H145.065V99.58H102.645V142H85.1453Z" fill="#F0D8BD"/>
<path d="M0.5 142V39.8H30.88C37.7867 39.8 43.76 41.1067 48.8 43.72C53.9333 46.3333 57.9 50.02 60.7 54.78C63.5 59.54 64.9 65.1867 64.9 71.72V109.94C64.9 116.38 63.5 122.027 60.7 126.88C57.9 131.64 53.9333 135.373 48.8 138.08C43.76 140.693 37.7867 142 30.88 142H0.5ZM18 125.9H30.88C35.92 125.9 39.9333 124.5 42.92 121.7C45.9067 118.807 47.4 114.887 47.4 109.94V71.72C47.4 66.8667 45.9067 63.04 42.92 60.24C39.9333 57.3467 35.92 55.9 30.88 55.9H18V125.9Z" fill="#F0D8BD"/>
</svg>

