<svg width="303" height="144" viewBox="0 0 303 144" fill="none" xmlns="http://www.w3.org/2000/svg">
<path fill-rule="evenodd" clip-rule="evenodd" d="M73 0C77 13 84 20 97 24C84 28 77 35 73 48C69 35 62 28 49 24C62 20 69 13 73 0Z" fill="#F0D8BD"/>
<path d="M270.736 143C264.203 143 258.509 141.787 253.656 139.36C248.896 136.84 245.209 133.34 242.596 128.86C240.076 124.287 238.816 118.92 238.816 112.76V68.24C238.816 62.08 240.076 56.76 242.596 52.28C245.209 47.7067 248.896 44.2067 253.656 41.78C258.509 39.26 264.203 38 270.736 38C277.363 38 283.056 39.26 287.816 41.78C292.576 44.2067 296.216 47.7067 298.736 52.28C301.349 56.76 302.656 62.0333 302.656 68.1V112.76C302.656 118.92 301.349 124.287 298.736 128.86C296.216 133.34 292.576 136.84 287.816 139.36C283.056 141.787 277.363 143 270.736 143ZM270.736 127.6C275.496 127.6 279.089 126.34 281.516 123.82C283.943 121.207 285.156 117.52 285.156 112.76V68.24C285.156 63.3867 283.943 59.7 281.516 57.18C279.089 54.66 275.496 53.4 270.736 53.4C265.976 53.4 262.383 54.66 259.956 57.18C257.529 59.7 256.316 63.3867 256.316 68.24V112.76C256.316 117.52 257.529 121.207 259.956 123.82C262.476 126.34 266.069 127.6 270.736 127.6Z" fill="#F0D8BD"/>
<path d="M192.951 143C186.417 143 180.677 141.787 175.731 139.36C170.877 136.84 167.097 133.34 164.391 128.86C161.777 124.287 160.471 118.92 160.471 112.76V68.24C160.471 61.9867 161.777 56.62 164.391 52.14C167.097 47.66 170.877 44.2067 175.731 41.78C180.677 39.26 186.417 38 192.951 38C199.577 38 205.271 39.26 210.031 41.78C214.884 44.2067 218.664 47.66 221.371 52.14C224.077 56.62 225.431 61.9867 225.431 68.24H207.791C207.791 63.3867 206.484 59.7 203.871 57.18C201.351 54.66 197.711 53.4 192.951 53.4C188.191 53.4 184.504 54.66 181.891 57.18C179.277 59.7 177.971 63.34 177.971 68.1V112.76C177.971 117.52 179.277 121.207 181.891 123.82C184.504 126.34 188.191 127.6 192.951 127.6C197.711 127.6 201.351 126.34 203.871 123.82C206.484 121.207 207.791 117.52 207.791 112.76H225.431C225.431 118.827 224.077 124.147 221.371 128.72C218.664 133.293 214.884 136.84 210.031 139.36C205.271 141.787 199.577 143 192.951 143Z" fill="#F0D8BD"/>
<path d="M115.725 143C108.725 143 102.659 141.833 97.5253 139.5C92.392 137.167 88.4253 133.853 85.6253 129.56C82.9186 125.173 81.5186 120.04 81.4253 114.16H98.9253C98.9253 118.36 100.419 121.673 103.405 124.1C106.485 126.433 110.639 127.6 115.865 127.6C120.905 127.6 124.825 126.433 127.625 124.1C130.519 121.767 131.965 118.547 131.965 114.44C131.965 110.987 130.939 108 128.885 105.48C126.925 102.867 124.079 101.093 120.345 100.16L108.585 96.94C100.559 94.8867 94.352 91.2 89.9653 85.88C85.672 80.56 83.5253 74.12 83.5253 66.56C83.5253 60.7733 84.832 55.7333 87.4453 51.44C90.0586 47.1467 93.7453 43.8333 98.5053 41.5C103.359 39.1667 109.052 38 115.585 38C125.479 38 133.319 40.5667 139.105 45.7C144.892 50.74 147.832 57.5533 147.925 66.14H130.425C130.425 62.1267 129.119 59 126.505 56.76C123.892 54.4267 120.205 53.26 115.445 53.26C110.872 53.26 107.325 54.3333 104.805 56.48C102.285 58.6267 101.025 61.66 101.025 65.58C101.025 69.1267 101.959 72.16 103.825 74.68C105.785 77.1067 108.585 78.8333 112.225 79.86L124.405 83.22C132.525 85.2733 138.732 88.96 143.025 94.28C147.319 99.5067 149.465 105.993 149.465 113.74C149.465 119.527 148.065 124.66 145.265 129.14C142.465 133.527 138.545 136.933 133.505 139.36C128.465 141.787 122.539 143 115.725 143Z" fill="#F0D8BD"/>
<path d="M0 141.6V39.3999H30.38C37.2867 39.3999 43.26 40.7066 48.3 43.3199C53.4333 45.9332 57.4 49.6199 60.2 54.3799C63 59.1399 64.4 64.7866 64.4 71.3199V109.54C64.4 115.98 63 121.627 60.2 126.48C57.4 131.24 53.4333 134.973 48.3 137.68C43.26 140.293 37.2867 141.6 30.38 141.6H0ZM17.5 125.5H30.38C35.42 125.5 39.4333 124.1 42.42 121.3C45.4067 118.407 46.9 114.487 46.9 109.54V71.3199C46.9 66.4666 45.4067 62.6399 42.42 59.8399C39.4333 56.9466 35.42 55.4999 30.38 55.4999H17.5V125.5Z" fill="#F0D8BD"/>
</svg>
