<svg width="469" height="144" viewBox="0 0 469 144" fill="none" xmlns="http://www.w3.org/2000/svg">
<path d="M0.5 142V39.7999H30.88C37.7867 39.7999 43.76 41.1066 48.8 43.7199C53.9333 46.3332 57.9 50.0199 60.7 54.7799C63.5 59.5399 64.9 65.1866 64.9 71.7199V109.94C64.9 116.38 63.5 122.027 60.7 126.88C57.9 131.64 53.9333 135.373 48.8 138.08C43.76 140.693 37.7867 142 30.88 142H0.5ZM18 126.32H30.88C35.92 126.32 39.9333 124.827 42.92 121.84C45.9067 118.853 47.4 114.887 47.4 109.94V71.7199C47.4 66.7732 45.9067 62.8532 42.92 59.9599C39.9333 56.9732 35.92 55.4799 30.88 55.4799H18V126.32ZM116.365 143.4C109.459 143.4 103.392 142.187 98.165 139.76C93.032 137.333 89.019 133.833 86.125 129.26C83.3253 124.687 81.9253 119.32 81.9253 113.16H99.145C99.145 117.733 100.685 121.373 103.765 124.08C106.939 126.787 111.139 128.14 116.365 128.14C121.405 128.14 125.372 126.787 128.265 124.08C131.252 121.373 132.745 117.827 132.745 113.44C132.745 110.08 131.812 107.093 129.945 104.48C128.079 101.867 125.325 100.14 121.685 99.2999L107.965 95.7999C100.592 93.9329 94.759 90.4329 90.465 85.2999C86.172 80.1666 84.0253 74.0532 84.0253 66.9599C84.0253 61.1732 85.2853 56.1332 87.805 51.8399C90.419 47.5466 94.059 44.2332 98.725 41.8999C103.485 39.5666 109.039 38.3999 115.385 38.3999C121.825 38.3999 127.425 39.5666 132.185 41.8999C136.945 44.2332 140.632 47.5466 143.245 51.8399C145.952 56.0399 147.305 60.9866 147.305 66.6799H130.225C130.225 62.6666 128.872 59.4932 126.165 57.1599C123.459 54.7332 119.865 53.5199 115.385 53.5199C110.999 53.5199 107.499 54.7332 104.885 57.1599C102.365 59.4932 101.105 62.5732 101.105 66.3999C101.105 69.5732 101.992 72.1866 103.765 74.2399C105.632 76.2932 108.199 77.7866 111.465 78.7199L125.605 82.2199C133.165 84.0866 139.092 87.8199 143.385 93.4199C147.772 99.0199 149.965 105.693 149.965 113.44C149.965 119.507 148.565 124.78 145.765 129.26C143.059 133.74 139.185 137.24 134.145 139.76C129.105 142.187 123.179 143.4 116.365 143.4ZM194.011 143.4C187.477 143.4 181.737 142.187 176.791 139.76C171.937 137.24 168.157 133.74 165.451 129.26C162.837 124.687 161.531 119.32 161.531 113.16V68.6399C161.531 62.3866 162.837 57.0199 165.451 52.5399C168.157 48.0599 171.937 44.6066 176.791 42.1799C181.737 39.6599 187.477 38.3999 194.011 38.3999C200.637 38.3999 206.331 39.6599 211.091 42.1799C215.944 44.6066 219.724 48.1066 222.431 52.6799C225.137 57.1599 226.491 62.4799 226.491 68.6399H208.851C208.851 63.7866 207.544 60.0999 204.931 57.5799C202.411 55.0599 198.771 53.7999 194.011 53.7999C189.251 53.7999 185.564 55.0599 182.951 57.5799C180.337 60.0999 179.031 63.7866 179.031 68.6399V113.16C179.031 117.92 180.337 121.607 182.951 124.22C185.564 126.74 189.251 128 194.011 128C198.771 128 202.411 126.74 204.931 124.22C207.544 121.607 208.851 117.92 208.851 113.16H226.491C226.491 119.227 225.137 124.547 222.431 129.12C219.724 133.693 215.944 137.24 211.091 139.76C206.331 142.187 200.637 143.4 194.011 143.4ZM259.896 142L234.136 39.7999H252.196L267.736 106.44C268.576 109.8 269.323 113.347 269.976 117.08C270.723 120.72 271.283 123.707 271.656 126.04C272.029 123.707 272.543 120.673 273.196 116.94C273.943 113.207 274.736 109.66 275.576 106.3L290.556 39.7999H308.336L282.576 142H259.896ZM321.161 142V39.7999H353.361C360.175 39.7999 366.055 41.0599 371.001 43.5799C376.041 46.0999 379.961 49.6466 382.761 54.2199C385.561 58.6999 386.961 64.0199 386.961 70.1799C386.961 76.8999 385.281 82.8266 381.921 87.9599C378.561 93.0929 374.035 96.7329 368.341 98.8799L388.361 142H369.181L351.261 101.4H338.521V142H321.161ZM338.521 85.9999H353.361C358.308 85.9999 362.181 84.6466 364.981 81.9399C367.781 79.2332 369.181 75.4999 369.181 70.7399C369.181 65.8866 367.781 62.1066 364.981 59.3999C362.181 56.5999 358.308 55.1999 353.361 55.1999H338.521V85.9999ZM420.507 142V104.9L390.547 39.7999H409.027L424.847 75.2199C426.06 78.0199 427.087 80.7732 427.927 83.4799C428.767 86.1866 429.327 88.2866 429.607 89.7799C429.98 88.2866 430.54 86.1866 431.287 83.4799C432.127 80.7732 433.153 78.0199 434.367 75.2199L449.907 39.7999H468.107L438.147 104.9V142H420.507Z" fill="#F0D8BD"/>
<path fill-rule="evenodd" clip-rule="evenodd" d="M73 0C77 13 84 20 97 24C84 28 77 35 73 48C69 35 62 28 49 24C62 20 69 13 73 0Z" fill="#F0D8BD"/>
</svg>
