<?xml version="1.0" encoding="UTF-8"?><svg xmlns="http://www.w3.org/2000/svg" viewBox="0 0 833.56 833.56"><defs><style>.e{fill:#00d632;}.f{fill-rule:evenodd;}</style></defs><g id="a"/><g id="b"><g id="c"><g id="d"><circle class="e" cx="416.78" cy="416.78" r="404.12"/><path class="f" d="M416.78,833.56c230.18,0,416.78-186.6,416.78-416.78S646.96,0,416.78,0,0,186.6,0,416.78s186.6,416.78,416.78,416.78Zm-14.57-49.55c209.26,0,378.89-169.64,378.89-378.89S611.46,26.23,402.21,26.23,23.32,195.87,23.32,405.12s169.64,378.89,378.89,378.89Z"/><path d="M531.01,262.45l-19.38-72.34-115.21,30.87-16.9-63.09-80.55,21.58,16.9,63.09-123.79,33.17,92.93,346.85,125.97-33.75,16.57,61.86,80.55-21.58-16.57-61.86,113.03-30.28-19.38-72.34-234.32,62.78-18.72-69.86,219.37-58.78-18.19-67.88-219.37,58.78-17.26-64.42,234.32-62.78Z"/></g></g></g></svg>