<svg width="101" height="30" viewBox="0 0 101 30" fill="none" xmlns="http://www.w3.org/2000/svg">
<g id="scanner">
<path id="Vector" d="M95.6728 28.8687L93.2174 17.9774H91.3956V28.8687H87.0391V1.14551H93.6926C97.2174 1.14551 99.5937 3.32375 99.5937 6.65053V12.5912C99.5937 14.5714 98.7224 16.1556 97.2174 17.0665L100.069 28.8687H95.6728ZM91.3956 5.10596V14.215H93.2966C94.4451 14.215 95.2372 13.4625 95.2372 12.314V7.00697C95.2372 5.85844 94.4451 5.10596 93.2966 5.10596H91.3956Z" fill="url(#paint0_linear_716_2059)"/>
<path id="Vector_2" d="M85.138 5.10596H80.2667V12.8684H84.6628V16.7497H80.2667V24.9082H85.138V28.8687H75.9102V1.14551H85.138V5.10596Z" fill="url(#paint1_linear_716_2059)"/>
<path id="Vector_3" d="M59.6367 28.8687V1.14551H64.9437L68.4289 16.5121L68.7854 19.5616H69.4982L69.1022 16.5121V1.14551H73.4587V28.8687H68.1913L64.7061 13.5021L64.3497 10.4526H63.6368L63.9932 13.5021V28.8687H59.6367Z" fill="url(#paint2_linear_716_2059)"/>
<path id="Vector_4" d="M43.3633 28.8687V1.14551H48.6703L52.1555 16.5121L52.5119 19.5616H53.2248L52.8288 16.5121V1.14551H57.1852V28.8687H51.9179L48.4327 13.5021L48.0762 10.4526H47.3633L47.7198 13.5021V28.8687H43.3633Z" fill="url(#paint3_linear_716_2059)"/>
<path id="Vector_5" d="M37.5299 28.8687L36.817 21.8983H33.1734L32.4606 28.8687H28.0645L31.7081 1.14551H38.52L42.124 28.8687H37.5299ZM33.5299 18.2547H36.421L35.3517 7.71985V5.4624H34.5992V7.71985L33.5299 18.2547Z" fill="url(#paint4_linear_716_2059)"/>
<path id="Vector_6" d="M20.9763 29.3436C17.2138 29.3436 14.7188 27.0069 14.7188 23.4821V6.49178C14.7188 3.00659 17.2138 0.669922 20.9763 0.669922C24.7387 0.669922 27.2338 3.00659 27.2338 6.49178V12.076H22.8773V6.53139C22.8773 5.38285 22.1248 4.63037 20.9763 4.63037C19.8277 4.63037 19.0752 5.38285 19.0752 6.53139V23.4821C19.0752 24.6306 19.8277 25.3831 20.9763 25.3831C22.1248 25.3831 22.8773 24.6306 22.8773 23.4821V17.5414H27.2338V23.4821C27.2338 27.0069 24.7387 29.3436 20.9763 29.3436Z" fill="url(#paint5_linear_716_2059)"/>
<path id="Vector_7" d="M6.58856 29.3436C2.82614 29.3436 0.331055 27.0069 0.331055 23.4821V19.3236H4.68755V23.4821C4.68755 24.6306 5.44003 25.3831 6.58856 25.3831C7.73709 25.3831 8.52918 24.6306 8.52918 23.4821V20.1553C8.52918 16.5513 0.410264 16.1949 0.410264 9.81856V6.49178C0.410264 3.00659 2.86574 0.669922 6.58856 0.669922C10.3114 0.669922 12.8065 3.00659 12.8065 6.49178V10.2146H8.44998V6.45218C8.44998 5.38285 7.69749 4.63037 6.58856 4.63037C5.47964 4.63037 4.76676 5.34325 4.76676 6.45218V9.3037C4.76676 12.9473 12.8857 13.3038 12.8857 19.6801V23.4821C12.8857 27.0069 10.351 29.3436 6.58856 29.3436Z" fill="url(#paint6_linear_716_2059)"/>
</g>
<defs>
<linearGradient id="paint0_linear_716_2059" x1="58.001" y1="0.540383" x2="50.001" y2="35.8687" gradientUnits="userSpaceOnUse">
<stop stop-color="#AB3BD2"/>
<stop offset="1" stop-color="#C26BE0"/>
</linearGradient>
<linearGradient id="paint1_linear_716_2059" x1="58.0016" y1="0.540384" x2="50.0016" y2="35.8687" gradientUnits="userSpaceOnUse">
<stop stop-color="#AB3BD2"/>
<stop offset="1" stop-color="#C26BE0"/>
</linearGradient>
<linearGradient id="paint2_linear_716_2059" x1="58.0015" y1="0.540383" x2="50.0015" y2="35.8687" gradientUnits="userSpaceOnUse">
<stop stop-color="#AB3BD2"/>
<stop offset="1" stop-color="#C26BE0"/>
</linearGradient>
<linearGradient id="paint3_linear_716_2059" x1="58.0015" y1="0.540384" x2="50.0015" y2="35.8687" gradientUnits="userSpaceOnUse">
<stop stop-color="#AB3BD2"/>
<stop offset="1" stop-color="#C26BE0"/>
</linearGradient>
<linearGradient id="paint4_linear_716_2059" x1="57.9993" y1="0.540384" x2="49.9993" y2="35.8687" gradientUnits="userSpaceOnUse">
<stop stop-color="#AB3BD2"/>
<stop offset="1" stop-color="#C26BE0"/>
</linearGradient>
<linearGradient id="paint5_linear_716_2059" x1="58.0003" y1="0.540051" x2="50.0003" y2="35.8683" gradientUnits="userSpaceOnUse">
<stop stop-color="#AB3BD2"/>
<stop offset="1" stop-color="#C26BE0"/>
</linearGradient>
<linearGradient id="paint6_linear_716_2059" x1="58.0002" y1="0.540051" x2="50.0002" y2="35.8683" gradientUnits="userSpaceOnUse">
<stop stop-color="#AB3BD2"/>
<stop offset="1" stop-color="#C26BE0"/>
</linearGradient>
</defs>
</svg>
