<svg width="256" height="256" viewBox="0 0 256 256" fill="none" xmlns="http://www.w3.org/2000/svg">
<path fill-rule="evenodd" clip-rule="evenodd" d="M54.6439 142.273L43.4415 128.545L43.311 128.385L43.175 128.229C39.4482 123.97 35.7478 119.107 32.0848 113.612L32.0092 113.499L31.9309 113.387C28.3416 108.26 25.4668 102.921 23.2774 97.3638L23.2203 97.219L23.1596 97.0758C20.9712 91.9172 20 87.1416 20 82.6682C20 69.9047 22.4428 59.5749 26.8353 51.2607L26.877 51.1818L26.9175 51.1023C31.1879 42.7198 37.1337 36.4318 44.8649 31.9477L44.865 31.9476C52.5277 27.5032 61.9291 25.0484 73.5073 25.0484C84.6787 25.0484 94.4265 27.6055 103.035 32.538C112.285 37.9547 119.147 44.2053 122.84 52.1716L125.166 57.1871L133.676 47.014C132.383 44.2451 130.836 41.6788 129.081 39.2921C123.861 32.1932 116.793 26.6831 109.051 22.1548C98.4764 16.0839 86.6284 13.0484 73.5073 13.0484C60.1905 13.0484 48.636 15.888 38.8443 21.5673C29.0525 27.2465 21.5127 35.2758 16.2251 45.6552C10.7416 56.0344 8 68.3721 8 82.6682C8 88.9349 9.37092 95.2996 12.1125 101.762C14.6585 108.225 17.9876 114.394 22.1002 120.269C26.0168 126.144 30.0316 131.431 34.1441 136.131L49.5 154.95V148.5L54.6439 142.273ZM104.605 203.5H89.117L106.575 224.894L114.185 234.22L122.889 225.906L127.022 221.958L118.926 213.097L115.279 216.58L104.605 203.5Z" fill="#000000"/>
<path d="M116.811 238.016C119.749 240.953 123.372 242.422 127.68 242.422L236.42 240.863C240.728 240.863 244.747 240.267 247.289 236.457C250.626 231.455 241.77 212.274 230.122 210.9C218.474 209.527 185.851 209.415 167.278 207.759C165.756 207.623 165.4 205.539 165.902 204.096C167.278 200.142 221.388 136.083 221.388 136.083C225.5 131.383 229.515 126.095 233.432 120.22C237.544 114.345 240.873 108.176 243.419 101.714C246.161 95.2512 247.532 88.8864 247.532 82.6197C247.532 68.3236 244.79 55.9859 239.307 45.6067C234.019 35.2274 226.479 27.1981 216.688 21.5189C206.896 15.8396 195.342 13 182.025 13C168.904 13 157.056 16.0354 146.48 22.1064C136.101 28.1773 126.934 36.0129 121.805 47.0755C118.809 53.5381 117.028 64.0386 118.809 71.1633C120.278 77.0384 121.747 78.5072 126.153 79.9759C130.559 81.4447 132.02 78.2542 133.497 71.1633C134.966 64.1132 137.359 56.1707 140.841 50.6005C145.247 43.5504 153.417 38.3394 159.935 35.9128C165.457 33.8565 174.629 32.1498 182.025 32.9753C195.185 34.444 204.427 39.1443 211.342 47.0755C218.256 55.0068 223.556 68.2258 222.034 78.2134L221.985 78.5383C221.049 84.6819 219.767 93.105 216.688 99.07C213.554 105.141 203.998 117.185 198.123 124.039L116.811 216.865C114.07 219.607 112.699 223.132 112.699 227.441C112.699 231.553 114.07 235.078 116.811 238.016Z" fill="#000000"/>
<path d="M36.2346 157.88C36.2346 157.175 36.2346 154.707 36.2346 150.477C36.4108 146.071 36.4989 141.136 36.4989 135.672C36.6752 130.032 36.6752 124.568 36.4989 119.28C36.4989 113.816 36.3227 109.586 35.9702 106.59C35.6177 102.713 35.5295 99.2756 35.7058 96.2793C36.0583 93.283 36.2346 89.9342 36.2346 86.2329C36.2346 83.7654 36.3227 81.5622 36.4989 79.6234C36.6752 77.5084 37.1158 75.7459 37.8208 74.3358C38.5258 72.7496 39.6715 71.6039 41.2578 70.8989C42.844 70.0177 45.1353 69.577 48.1316 69.577C50.9516 69.577 53.6836 70.5464 56.3274 72.4852C59.1474 74.424 60.8218 77.0678 61.3506 80.4166L65.3162 133.028L66.1094 200.18L101.536 199.123C102.77 199.123 104.532 199.74 106.824 200.973C109.291 202.031 110.525 203.353 110.525 204.939C110.525 206.349 109.908 207.583 108.674 208.64C107.441 209.522 105.942 210.315 104.18 211.02C102.594 211.548 100.919 211.989 99.1567 212.342C97.5705 212.518 96.4248 212.606 95.7198 212.606C94.3098 212.782 92.1948 212.958 89.3747 213.135C86.5547 213.135 83.5584 213.135 80.3858 213.135C77.3895 213.135 74.4814 213.135 71.6613 213.135C68.8413 213.135 66.7263 213.135 65.3162 213.135C63.5537 214.016 61.4387 214.369 58.9711 214.192C56.5036 214.016 54.4767 213.928 52.8904 213.928H44.6947C43.2847 213.928 41.6984 213.575 39.9359 212.87C38.3496 211.989 37.1158 211.02 36.2346 209.962V157.88Z" fill="#000000"/>
</svg>
