<svg
  width="20"
  height="20"
  viewBox="0 0 20 20"
  fill="none"
  xmlns="http://www.w3.org/2000/svg"
>
  <g id="icons8-break 1">
    <path
      id="Vector"
      d="M7.73117 1.5L7.66695 4.82438L8.69888 4.84381L8.7631 1.52017L7.73117 1.5ZM13.8093 2.06639C13.425 2.06528 13.0443 2.14046 12.6893 2.28758C12.3343 2.4347 12.0119 2.65082 11.7409 2.92345L8.75489 5.91532L9.84879 7.00925L12.8191 4.03308C12.9469 3.90435 13.0988 3.80222 13.2662 3.73258C13.4336 3.66294 13.6131 3.62717 13.7943 3.62734C13.9775 3.62568 14.1591 3.66073 14.3285 3.73041C14.4979 3.80009 14.6517 3.903 14.7807 4.03308L16.0307 5.28392C16.2879 5.54333 16.4323 5.89397 16.4323 6.25942C16.4323 6.62487 16.2879 6.9755 16.0307 7.23491L13.1708 10.0818L14.2677 11.1795L17.1238 8.31764C17.6723 7.76878 17.9804 7.02439 17.9804 6.24821C17.9804 5.47203 17.6723 4.72764 17.1238 4.17878L15.8776 2.92719C15.607 2.65371 15.2849 2.43678 14.9298 2.28901C14.5747 2.14123 14.1938 2.06556 13.8093 2.06639ZM3.8394 3.09606L3.10913 3.8261L5.52319 6.24261L6.25346 5.51182L3.8394 3.09606ZM4.84445 7.6018L1.5 7.68325L1.52539 8.7159L4.86983 8.63446L4.84445 7.6018ZM5.67029 9.00657L2.99414 11.6846C2.72486 11.9537 2.51126 12.2733 2.36558 12.6252C2.2199 12.977 2.14499 13.3541 2.14514 13.735C2.14488 14.1194 2.22039 14.5001 2.36735 14.8553C2.51431 15.2104 2.72985 15.5331 3.0016 15.8048L4.2553 17.0407C4.52689 17.3125 4.84934 17.5282 5.20424 17.6753C5.55913 17.8225 5.93951 17.8982 6.32365 17.8982C6.70779 17.8982 7.08817 17.8225 7.44306 17.6753C7.79795 17.5282 8.1204 17.3125 8.39199 17.0407L11.0338 14.4008L9.9369 13.3031L7.29883 15.9468C7.03961 16.2042 6.68921 16.3486 6.32402 16.3486C5.95883 16.3486 5.60844 16.2042 5.34921 15.9468L4.0985 14.7071C3.97032 14.5795 3.8686 14.4278 3.79919 14.2607C3.72978 14.0936 3.69405 13.9144 3.69405 13.7335C3.69405 13.5525 3.72978 13.3734 3.79919 13.2063C3.8686 13.0392 3.97032 12.8875 4.0985 12.7599L6.77465 10.0818L5.67029 9.00657ZM18.4828 11.2654L15.1608 11.323L15.1787 12.3556L18.5 12.2981L18.4828 11.2654ZM14.4835 13.7454L13.7533 14.4755L16.1673 16.8912L16.8976 16.1612L14.4835 13.7454ZM11.3571 15.1285L11.2757 18.4753L12.3077 18.5L12.3891 15.1532L11.3571 15.1285Z"
      fill="#5F6470"
    />
  </g>
</svg>
