<svg width="16" height="16" viewBox="0 0 16 16" fill="none">
  <path fill-rule="evenodd" clip-rule="evenodd"
    d="M6.10352e-05 4C6.10352e-05 1.79086 1.79092 0 4.00006 0H12.0001C14.2092 0 16.0001 1.79086 16.0001 4V12C16.0001 14.2091 14.2092 16 12.0001 16H4.00006C1.79092 16 6.10352e-05 14.2091 6.10352e-05 12V4ZM3.43006 13V3H5.59858V11.2389H12.1684V13H3.43006ZM8.34902 9.64026C8.76082 9.82206 9.23176 9.91297 9.76184 9.91297C10.3116 9.91297 10.7968 9.82645 11.2174 9.6534C11.6401 9.48036 11.9698 9.2416 12.2063 8.93713C12.4451 8.63267 12.5634 8.28329 12.5612 7.88902C12.5656 7.47722 12.4309 7.13551 12.1571 6.8639C11.8833 6.5901 11.4747 6.42363 10.9315 6.36449V6.31192C11.3324 6.26811 11.6631 6.12573 11.9238 5.88478C12.1866 5.64384 12.3159 5.33499 12.3115 4.95824C12.3137 4.57929 12.2063 4.24306 11.9895 3.94955C11.7748 3.65384 11.4758 3.42166 11.0925 3.25299C10.7114 3.08433 10.2722 3 9.77498 3C9.2668 3 8.81667 3.08981 8.42459 3.26942C8.0325 3.44904 7.72365 3.69655 7.49804 4.01197C7.27462 4.32739 7.16181 4.691 7.15962 5.1028H8.90758C8.90977 4.967 8.9481 4.84652 9.02257 4.74138C9.09705 4.63624 9.1989 4.5541 9.32814 4.49496C9.45956 4.43582 9.60851 4.40625 9.77498 4.40625C9.92831 4.40625 10.063 4.43473 10.1791 4.49168C10.2974 4.54863 10.3894 4.62748 10.4551 4.72824C10.5208 4.829 10.5526 4.94509 10.5504 5.07652C10.5526 5.21232 10.5142 5.3328 10.4354 5.43794C10.3587 5.54308 10.2503 5.62522 10.1101 5.68436C9.97212 5.7435 9.81222 5.77307 9.63041 5.77307H8.947V7.03475H9.63041C9.82755 7.03475 10.0017 7.06433 10.1528 7.12347C10.304 7.18261 10.4212 7.26475 10.5044 7.36989C10.5898 7.47503 10.6314 7.5955 10.6292 7.73131C10.6314 7.8693 10.5964 7.99197 10.5241 8.0993C10.4518 8.20663 10.3511 8.29096 10.2218 8.35229C10.0926 8.41143 9.94364 8.441 9.77498 8.441C9.59975 8.441 9.44423 8.41253 9.30842 8.35558C9.17262 8.29863 9.06529 8.21977 8.98643 8.11901C8.90977 8.01606 8.87034 7.89997 8.86815 7.77074H7.02819C7.03039 8.18911 7.14867 8.55929 7.38304 8.88128C7.61742 9.20327 7.93941 9.45626 8.34902 9.64026Z"
    fill="#8ED0FF" />
</svg>