<svg xmlns="http://www.w3.org/2000/svg" fill="none" viewBox="0 0 32 32" opt="1"><g clip-path="url(#a)"><g filter="url(#b)" opacity=".4"><path fill="url(#c)" d="M19.401 29.07c5.302 0 9.599-4.272 9.599-9.542a9.46 9.46 0 0 0-1.712-5.441l-7.95 4.758-7.951-4.57a9.46 9.46 0 0 0-1.584 5.253c0 5.27 4.297 9.542 9.598 9.542"/><path fill="url(#d)" fill-opacity=".5" d="M19.401 29.07c5.302 0 9.599-4.272 9.599-9.542a9.46 9.46 0 0 0-1.712-5.441l-7.95 4.758-7.951-4.57a9.46 9.46 0 0 0-1.584 5.253c0 5.27 4.297 9.542 9.598 9.542"/><path fill="url(#e)" d="M19.401 29.07c5.302 0 9.599-4.272 9.599-9.542a9.46 9.46 0 0 0-1.712-5.441l-7.95 4.758-7.951-4.57a9.46 9.46 0 0 0-1.584 5.253c0 5.27 4.297 9.542 9.598 9.542"/><path fill="url(#f)" d="M19.401 29.07c5.302 0 9.599-4.272 9.599-9.542a9.46 9.46 0 0 0-1.712-5.441l-7.95 4.758-7.951-4.57a9.46 9.46 0 0 0-1.584 5.253c0 5.27 4.297 9.542 9.598 9.542"/><path fill="url(#g)" d="m12.642 12.561 6.76 3.864V2.224z"/><path fill="url(#h)" d="m12.642 12.561 6.76 3.864V2.224z"/><path fill="url(#i)" d="m26.15 12.561-6.748 3.864V2.224z"/><path fill="url(#j)" d="m26.15 12.561-6.748 3.864V2.224z"/><path fill="url(#k)" fill-opacity=".6" d="m26.15 12.561-6.748 3.864V2.224z"/><path fill="url(#l)" d="m27.288 14.085-7.887 4.75v10.191z"/><path fill="url(#m)" d="m27.288 14.085-7.887 4.75v10.191z"/><path fill="url(#n)" d="m27.288 14.085-7.887 4.75v10.191z"/><path fill="url(#o)" d="m11.38 14.264 8.021 4.57v10.192z"/><path fill="url(#p)" d="m11.38 14.264 8.021 4.57v10.192z"/><path fill="url(#q)" d="m11.38 14.264 8.021 4.57v10.192z"/></g><path fill="url(#r)" d="M16.007 31.404C22.078 31.404 27 26.511 27 20.475c0-2.316-.725-4.464-1.961-6.232l-9.106 5.45-9.106-5.234a10.83 10.83 0 0 0-1.814 6.016c0 6.036 4.922 10.93 10.994 10.93"/><path fill="url(#s)" fill-opacity=".5" d="M16.007 31.404C22.078 31.404 27 26.511 27 20.475c0-2.316-.725-4.464-1.961-6.232l-9.106 5.45-9.106-5.234a10.83 10.83 0 0 0-1.814 6.016c0 6.036 4.922 10.93 10.994 10.93"/><path fill="url(#t)" d="M16.007 31.404C22.078 31.404 27 26.511 27 20.475c0-2.316-.725-4.464-1.961-6.232l-9.106 5.45-9.106-5.234a10.83 10.83 0 0 0-1.814 6.016c0 6.036 4.922 10.93 10.994 10.93"/><path fill="url(#u)" d="M16.007 31.404C22.078 31.404 27 26.511 27 20.475c0-2.316-.725-4.464-1.961-6.232l-9.106 5.45-9.106-5.234a10.83 10.83 0 0 0-1.814 6.016c0 6.036 4.922 10.93 10.994 10.93"/><path fill="url(#v)" d="m8.265 12.496 7.742 4.425V.656z"/><path fill="url(#w)" d="m8.265 12.496 7.742 4.425V.656z"/><path fill="url(#x)" d="m23.736 12.496-7.73 4.425V.656z"/><path fill="url(#y)" d="m23.736 12.496-7.73 4.425V.656z"/><path fill="url(#z)" fill-opacity=".6" d="m23.736 12.496-7.73 4.425V.656z"/><path fill="url(#A)" d="m25.039 14.241-9.033 5.439v11.673z"/><path fill="url(#B)" d="m25.039 14.241-9.033 5.439v11.673z"/><path fill="url(#C)" d="m25.039 14.241-9.033 5.439v11.673z"/><path fill="url(#D)" d="m6.82 14.446 9.186 5.234v11.673z"/><path fill="url(#E)" d="m6.82 14.446 9.186 5.234v11.673z"/><path fill="url(#F)" d="m6.82 14.446 9.186 5.234v11.673z"/></g><defs><radialGradient id="c" cx="0" cy="0" r="1" gradientTransform="rotate(-145.131 17.386 8.96)scale(17.463 23.3552)" gradientUnits="userSpaceOnUse"><stop stop-color="#8AFBED" stop-opacity="0"/><stop offset=".671" stop-color="#00A3FF" stop-opacity=".457"/><stop offset="1" stop-color="#198CF6"/></radialGradient><radialGradient id="d" cx="0" cy="0" r="1" gradientTransform="matrix(10.16222 13.39338 -10.8963 8.26757 17.033 12.934)" gradientUnits="userSpaceOnUse"><stop stop-color="#35C2FF"/><stop offset="1" stop-color="#00A3FF" stop-opacity="0"/></radialGradient><radialGradient id="e" cx="0" cy="0" r="1" gradientTransform="matrix(3.75281 6.31483 -8.09067 4.80817 10.308 13.662)" gradientUnits="userSpaceOnUse"><stop stop-color="#3B52FC"/><stop offset="1" stop-color="#3B52FC" stop-opacity="0"/></radialGradient><radialGradient id="f" cx="0" cy="0" r="1" gradientTransform="rotate(90.189 7.96 19.788)scale(10.9337 14.0085)" gradientUnits="userSpaceOnUse"><stop stop-color="#2A6BFF"/><stop offset="1" stop-color="#2A6BFF" stop-opacity="0"/></radialGradient><radialGradient id="g" cx="0" cy="0" r="1" gradientTransform="matrix(-7.68386 3.1542 -7.91662 -19.28545 19.386 9.305)" gradientUnits="userSpaceOnUse"><stop stop-color="#00A3FF"/><stop offset=".944" stop-color="#00A3FF" stop-opacity=".29"/></radialGradient><radialGradient id="h" cx="0" cy="0" r="1" gradientTransform="rotate(78.816 5.862 11.908)scale(9.67401 17.8963)" gradientUnits="userSpaceOnUse"><stop stop-color="#FF7272"/><stop offset=".18" stop-color="#FF72A7"/><stop offset="1" stop-color="#7A51FF" stop-opacity="0"/></radialGradient><radialGradient id="i" cx="0" cy="0" r="1" gradientTransform="rotate(84.193 7.812 11.682)scale(23.5398 9.69472)" gradientUnits="userSpaceOnUse"><stop stop-color="#FFBFAB"/><stop offset=".365" stop-color="#FF67A8" stop-opacity=".87"/><stop offset=".724" stop-color="#6BAFFF" stop-opacity="0"/></radialGradient><radialGradient id="j" cx="0" cy="0" r="1" gradientTransform="rotate(-50.305 24.826 -13.558)scale(7.17515 10.882)" gradientUnits="userSpaceOnUse"><stop stop-color="#2238FF"/><stop offset="1" stop-color="#0047FF" stop-opacity="0"/></radialGradient><radialGradient id="l" cx="0" cy="0" r="1" gradientTransform="rotate(-65.238 30.927 -1.59)scale(9.4232 21.2151)" gradientUnits="userSpaceOnUse"><stop stop-color="#4DEAFF"/><stop offset=".944" stop-color="#00A3FF" stop-opacity=".1"/></radialGradient><radialGradient id="m" cx="0" cy="0" r="1" gradientTransform="matrix(8.44838 1.43128 -1.36974 8.0851 18.242 20.53)" gradientUnits="userSpaceOnUse"><stop stop-color="#35AAFF"/><stop offset="0" stop-color="#0057FF"/><stop offset="1" stop-color="#00A3FF" stop-opacity="0"/></radialGradient><radialGradient id="n" cx="0" cy="0" r="1" gradientTransform="rotate(125.701 10.13 13.823)scale(8.8426 4.66743)" gradientUnits="userSpaceOnUse"><stop stop-color="#2241FF"/><stop offset="1" stop-color="#1EA0FF" stop-opacity="0"/></radialGradient><radialGradient id="o" cx="0" cy="0" r="1" gradientTransform="rotate(-115.401 18.285 7.463)scale(9.35893 21.4663)" gradientUnits="userSpaceOnUse"><stop stop-color="#64E3FF"/><stop offset="1" stop-color="#00A3FF" stop-opacity=".29"/></radialGradient><radialGradient id="p" cx="0" cy="0" r="1" gradientTransform="rotate(50.704 -11.94 21.31)scale(9.10427 8.82624)" gradientUnits="userSpaceOnUse"><stop stop-color="#3687FF"/><stop offset="1" stop-color="#354BFF" stop-opacity="0"/></radialGradient><radialGradient id="q" cx="0" cy="0" r="1" gradientTransform="rotate(46.273 -11.516 20.683)scale(5.74246 3.12046)" gradientUnits="userSpaceOnUse"><stop stop-color="#1858FF"/><stop offset="1" stop-color="#3A70FF" stop-opacity="0"/></radialGradient><radialGradient id="r" cx="0" cy="0" r="1" gradientTransform="rotate(-145.131 16.509 10.293)scale(20.0008 26.7493)" gradientUnits="userSpaceOnUse"><stop stop-color="#8AFBED" stop-opacity="0"/><stop offset=".671" stop-color="#00A3FF" stop-opacity=".457"/><stop offset="1" stop-color="#198CF6"/></radialGradient><radialGradient id="s" cx="0" cy="0" r="1" gradientTransform="rotate(50.439 -7.072 20.575)scale(31.6419 25.7424)" gradientUnits="userSpaceOnUse"><stop stop-color="#35C2FF"/><stop offset="1" stop-color="#00A3FF" stop-opacity="0"/></radialGradient><radialGradient id="t" cx="0" cy="0" r="1" gradientTransform="rotate(59.278 -9.293 11.792)scale(8.41331 10.7793)" gradientUnits="userSpaceOnUse"><stop stop-color="#3B52FC"/><stop offset="1" stop-color="#3B52FC" stop-opacity="0"/></radialGradient><radialGradient id="u" cx="0" cy="0" r="1" gradientTransform="matrix(-.04133 12.52263 -16.04421 -.05295 25.595 11.732)" gradientUnits="userSpaceOnUse"><stop stop-color="#2A6BFF"/><stop offset="1" stop-color="#2A6BFF" stop-opacity="0"/></radialGradient><radialGradient id="v" cx="0" cy="0" r="1" gradientTransform="rotate(157.682 7.13 5.96)scale(9.51313 23.8767)" gradientUnits="userSpaceOnUse"><stop stop-color="#00A3FF"/><stop offset=".944" stop-color="#00A3FF" stop-opacity=".29"/></radialGradient><radialGradient id="w" cx="0" cy="0" r="1" gradientTransform="rotate(78.816 4.757 8.91)scale(11.0799 20.4971)" gradientUnits="userSpaceOnUse"><stop stop-color="#FF7272"/><stop offset=".18" stop-color="#FF72A7"/><stop offset="1" stop-color="#7A51FF" stop-opacity="0"/></radialGradient><radialGradient id="x" cx="0" cy="0" r="1" gradientTransform="matrix(2.72769 26.82236 -11.04663 1.12338 15.139 1.234)" gradientUnits="userSpaceOnUse"><stop stop-color="#FFBFAB"/><stop offset=".365" stop-color="#FF67A8" stop-opacity=".87"/><stop offset=".724" stop-color="#6BAFFF" stop-opacity="0"/></radialGradient><radialGradient id="y" cx="0" cy="0" r="1" gradientTransform="rotate(-50.305 23.312 -9.856)scale(8.21787 12.4634)" gradientUnits="userSpaceOnUse"><stop stop-color="#2238FF"/><stop offset="1" stop-color="#0047FF" stop-opacity="0"/></radialGradient><radialGradient id="A" cx="0" cy="0" r="1" gradientTransform="rotate(-65.238 30.837 2.09)scale(10.7926 24.2981)" gradientUnits="userSpaceOnUse"><stop stop-color="#4DEAFF"/><stop offset=".944" stop-color="#00A3FF" stop-opacity=".1"/></radialGradient><radialGradient id="B" cx="0" cy="0" r="1" gradientTransform="matrix(9.67612 1.63928 -1.5688 9.26006 14.679 21.623)" gradientUnits="userSpaceOnUse"><stop stop-color="#35AAFF"/><stop offset="0" stop-color="#0057FF"/><stop offset="1" stop-color="#00A3FF" stop-opacity="0"/></radialGradient><radialGradient id="C" cx="0" cy="0" r="1" gradientTransform="rotate(125.701 8.98 13.293)scale(10.1276 5.34571)" gradientUnits="userSpaceOnUse"><stop stop-color="#2241FF"/><stop offset="1" stop-color="#1EA0FF" stop-opacity="0"/></radialGradient><radialGradient id="D" cx="0" cy="0" r="1" gradientTransform="matrix(-4.5981 -9.6827 22.20894 -10.54653 15.989 29.241)" gradientUnits="userSpaceOnUse"><stop stop-color="#64E3FF"/><stop offset="1" stop-color="#00A3FF" stop-opacity=".29"/></radialGradient><radialGradient id="E" cx="0" cy="0" r="1" gradientTransform="matrix(6.60387 8.06954 -7.82313 6.40222 7.658 17.642)" gradientUnits="userSpaceOnUse"><stop stop-color="#3687FF"/><stop offset="1" stop-color="#354BFF" stop-opacity="0"/></radialGradient><radialGradient id="F" cx="0" cy="0" r="1" gradientTransform="rotate(46.273 -14.084 15.472)scale(6.57698 3.57393)" gradientUnits="userSpaceOnUse"><stop stop-color="#1858FF"/><stop offset="1" stop-color="#3A70FF" stop-opacity="0"/></radialGradient><linearGradient id="k" x1="26.185" x2="21.747" y1="14.709" y2="12.688" gradientUnits="userSpaceOnUse"><stop stop-color="#29EDFE"/><stop offset="1" stop-color="#29EDFE" stop-opacity="0"/></linearGradient><linearGradient id="z" x1="23.776" x2="18.693" y1="14.956" y2="12.641" gradientUnits="userSpaceOnUse"><stop stop-color="#29EDFE"/><stop offset="1" stop-color="#29EDFE" stop-opacity="0"/></linearGradient><clipPath id="a"><rect width="32" height="32" fill="#fff" rx="1.28"/></clipPath><filter id="b" width="29.197" height="36.847" x="4.803" y="-2.776" color-interpolation-filters="sRGB" filterUnits="userSpaceOnUse"><feFlood flood-opacity="0" result="BackgroundImageFix"/><feBlend in="SourceGraphic" in2="BackgroundImageFix" result="shape"/><feGaussianBlur result="effect1_foregroundBlur_3490_2951" stdDeviation="2.5"/></filter></defs></svg>