<svg
  width="20"
  height="20"
  viewBox="0 0 20 20"
  fill="none"
  xmlns="http://www.w3.org/2000/svg"
>
  <g clipPath="url(#clip0_1_192)">
    <path
      d="M1.91502 0.00236552C1.85483 -0.00219857 1.78626 -0.000705909 1.70968 0.0116946C1.43179 0.0565201 1.25 0.262145 1.25 0.262145L2.80124 19.8884C2.80124 19.8884 2.97365 20.0459 3.29359 19.9867C3.62595 19.9257 3.75 19.7111 3.75 19.7111L2.19829 0.0856097C2.19829 0.0856097 2.09559 0.0160577 1.91502 0.00236552Z"
      fill="#FF7D1F"
    />
    <path
      d="M7.94727 0.510431C6.44996 0.484598 4.56956 0.666397 3.03772 1.49639L4.68991 14.1309C6.43767 13.6507 8.40765 13.4775 9.89893 13.4183L10.3185 15.166C10.3185 15.166 14.5133 16.0945 18.7444 14.9201L17.2629 3.06756C15.0296 3.66358 12.3448 3.59482 10.916 3.50014L10.5586 0.7694C10.5586 0.7694 9.44457 0.536265 7.94727 0.510431ZM6.85425 1.89786L7.24776 4.51938C7.24776 4.51938 5.57542 4.65195 4.53728 5.02935L4.17269 2.43678C5.17824 1.9353 6.85425 1.89786 6.85425 1.89786ZM9.80055 4.34143C9.9471 4.34156 10.0139 4.3439 10.0335 4.34432L10.4371 7.08808C9.79391 6.82654 7.61741 7.07144 7.61741 7.07144L7.26006 4.51793C8.19339 4.36015 9.30358 4.34097 9.80055 4.34143ZM16.2769 4.40291L16.5865 6.76835C15.8751 7.04501 14.1415 7.09459 14.1415 7.09459L13.7798 4.73856C14.6691 4.67152 16.2769 4.40291 16.2769 4.40291ZM11.8079 6.90507C11.8079 6.90507 13.1522 7.03087 14.1307 7.09531L14.4895 9.43109C14.4895 9.43109 12.7547 9.41951 12.1443 9.25025L11.8079 6.90507ZM7.60439 7.08374L7.98705 9.61049C7.98705 9.61049 6.01537 9.95499 5.26427 10.2254L4.90041 7.63278C5.99633 7.21723 7.60439 7.08374 7.60439 7.08374ZM16.8708 9.13161L17.226 11.4479C17.226 11.4479 16.2579 11.8501 14.956 11.9267L14.5032 9.44049C15.7217 9.38086 16.8708 9.13161 16.8708 9.13161ZM10.1174 9.47594C10.4056 9.4779 10.6506 9.49632 10.7916 9.54104L11.1554 12.1336C11.1554 12.1336 9.69425 11.9193 8.39648 12.1126L7.99935 9.60904C7.99935 9.60904 9.25286 9.47005 10.1174 9.47594ZM12.3049 11.6019C13.2904 11.9653 14.9452 11.9267 14.9452 11.9267L15.3004 14.2242C14.037 14.3579 12.7541 14.1287 12.7541 14.1287L12.3049 11.6019Z"
      fill="black"
    />
  </g>
  <defs>
    <clipPath id="clip0_1_192">
      <rect width="20" height="20" fill="white" />
    </clipPath>
  </defs>
</svg>