<svg width="256" height="256" viewBox="0 0 256 256" fill="none" xmlns="http://www.w3.org/2000/svg">
<style>
.text { fill: #222222; }
@media (prefers-color-scheme: dark) {
  .text{ fill: #fafafa; }
}

.heart { fill: #f9347b; }
@media (prefers-color-scheme: dark) {
  .heart{ fill: #bd114f; }
}
</style>
<path class="heart" d="M107.788 15.7651C118.86 22.2408 128.638 30.5987 134.109 42.3989L179.009 15.7651L231.321 40.8322L243.199 86.7061L136.099 220.156L113.264 241.968L27.8871 137.34C23.5003 132.327 19.2179 126.687 15.0402 120.42C10.6534 114.153 7.10241 107.573 4.38671 100.68C1.46232 93.7863 0 86.9972 0 80.3128C0 65.0636 2.92433 51.9034 8.77341 40.8322C14.4135 29.7609 22.456 21.1963 32.9006 15.1384C43.3451 9.08057 55.6699 6.05164 69.8745 6.05164C83.8704 6.05164 96.5082 9.28945 107.788 15.7651Z" />
<path class="heart" d="M117.319 124.01H46.3704V211.965H117.319V124.01Z" />
<path class="text" d="M116.065 246.017C119.199 249.15 123.064 250.717 127.659 250.717L243.648 249.054C248.244 249.054 252.53 248.418 255.241 244.354C258.801 239.018 249.354 218.559 236.93 217.094C224.506 215.628 189.708 215.51 169.897 213.743C168.274 213.598 167.893 211.375 168.429 209.836C169.897 205.618 227.614 137.289 227.614 137.289C232.001 132.275 236.283 126.635 240.461 120.368C244.847 114.102 248.398 107.521 251.114 100.628C254.039 93.7346 255.501 86.9455 255.501 80.2611C255.501 65.0118 252.576 51.8517 246.727 40.7805C241.087 29.7092 233.045 21.1447 222.6 15.0868C212.156 9.02894 199.831 6 185.626 6C171.631 6 158.993 9.23781 147.713 15.7135C136.641 22.1891 126.863 30.5471 121.392 42.3472C118.196 49.2406 116.296 60.4412 118.196 68.0409C119.763 74.3076 121.33 75.8743 126.03 77.441C130.73 79.0077 132.288 75.6046 133.863 68.0409C135.43 60.5208 137.983 52.0487 141.697 46.1072C146.397 38.5871 155.112 33.0287 162.064 30.4403C167.954 28.247 177.738 26.4265 185.626 27.3069C199.664 28.8736 209.522 33.8873 216.898 42.3472C224.273 50.8073 229.927 64.9075 228.303 75.561L228.25 75.9075C227.253 82.4607 225.884 91.4454 222.6 97.808C219.258 104.283 209.064 117.13 202.798 124.442L116.065 223.457C113.141 226.381 111.679 230.141 111.679 234.737C111.679 239.123 113.141 242.884 116.065 246.017Z"/>
<path class="text" d="M30.117 160.538C30.117 159.786 30.117 157.154 30.117 152.642C30.305 147.942 30.399 142.678 30.399 136.85C30.587 130.834 30.587 125.006 30.399 119.366C30.399 113.538 30.211 109.025 29.835 105.829C29.459 101.693 29.365 98.0273 29.553 94.8313C29.929 91.6352 30.117 88.0632 30.117 84.1151C30.117 81.4831 30.211 79.133 30.399 77.065C30.587 74.809 31.057 72.9289 31.809 71.4249C32.561 69.7329 33.7831 68.5109 35.4751 67.7589C37.1671 66.8189 39.6111 66.3488 42.8072 66.3488C45.8152 66.3488 48.7293 67.3829 51.5493 69.4509C54.5574 71.5189 56.3434 74.339 56.9074 77.911L61.1375 134.03L61.9835 205.659L99.772 204.531C101.088 204.531 102.968 205.189 105.412 206.505C108.044 207.633 109.36 209.043 109.36 210.735C109.36 212.239 108.702 213.555 107.386 214.683C106.07 215.623 104.472 216.469 102.592 217.221C100.9 217.785 99.114 218.255 97.234 218.631C95.542 218.819 94.32 218.913 93.5679 218.913C92.0639 219.101 89.8079 219.289 86.7998 219.477C83.7918 219.477 80.5958 219.477 77.2117 219.477C74.0157 219.477 70.9136 219.477 67.9056 219.477C64.8975 219.477 62.6415 219.477 61.1375 219.477C59.2574 220.417 57.0014 220.793 54.3694 220.605C51.7373 220.417 49.5753 220.323 47.8833 220.323H39.1411C37.6371 220.323 35.9451 219.947 34.0651 219.195C32.373 218.255 31.057 217.221 30.117 216.093V160.538Z"/>
</svg>
