<svg width="102" height="32" viewBox="0 0 102 32" fill="none" xmlns="http://www.w3.org/2000/svg">
<path d="M4.512 8.32002V24.32H0.352V8.32002H4.512ZM2.432 0C3.15733 0 3.744 0.213329 4.192 0.640019C4.64 1.06662 4.864 1.62132 4.864 2.30402C4.864 2.98662 4.64 3.55202 4.192 4.00002C3.744 4.42662 3.15733 4.64002 2.432 4.64002C1.70667 4.64002 1.12 4.42662 0.672 4.00002C0.224 3.55202 0 2.98662 0 2.30402C0 1.62132 0.224 1.06662 0.672 0.640019C1.12 0.213329 1.70667 0 2.432 0ZM19.857 15.264C19.857 14.0693 19.5797 13.1626 19.025 12.544C18.4703 11.904 17.681 11.584 16.657 11.584C15.5903 11.584 14.705 11.9253 14.001 12.608C13.3183 13.2906 12.977 14.2826 12.977 15.584V24.32H8.817V8.32002H12.977V10.784C13.553 9.86662 14.289 9.17332 15.185 8.70402C16.1023 8.23462 17.105 8.00002 18.193 8.00002C19.9423 8.00002 21.3503 8.58662 22.417 9.76002C23.4837 10.912 24.017 12.512 24.017 14.56V24.32H19.857V15.264ZM33.5763 8.00002C34.7283 8.00002 35.8589 8.16002 36.9683 8.48002C38.0776 8.77862 39.0483 9.19462 39.8803 9.72802L38.5043 12.768C37.7576 12.3413 36.9469 12 36.0723 11.744C35.1976 11.488 34.3656 11.36 33.5763 11.36C32.7443 11.36 32.1256 11.4986 31.7203 11.776C31.3363 12.032 31.1443 12.3413 31.1443 12.704C31.1443 13.0666 31.3789 13.3866 31.8483 13.664C32.3176 13.92 33.2883 14.2293 34.7603 14.592C36.6803 15.0613 38.0989 15.7013 39.0163 16.512C39.9336 17.3226 40.3923 18.3893 40.3923 19.712C40.3923 20.6506 40.1256 21.4933 39.5923 22.24C39.0803 22.9866 38.3229 23.5733 37.3203 24C36.3389 24.4266 35.1549 24.64 33.7682 24.64C32.4243 24.64 31.1443 24.48 29.9283 24.16C28.7336 23.8186 27.6883 23.328 26.7923 22.688L27.9443 19.328C28.8189 19.9253 29.7789 20.4053 30.8243 20.768C31.8909 21.1093 32.8723 21.28 33.7682 21.28C34.5576 21.28 35.1656 21.1626 35.5923 20.928C36.0189 20.672 36.2323 20.3626 36.2323 20C36.2323 19.6373 35.9763 19.296 35.4643 18.976C34.9523 18.656 34.0029 18.3253 32.6163 17.984C30.6749 17.4933 29.2456 16.8533 28.3283 16.064C27.4323 15.2533 26.9843 14.2186 26.9843 12.96C26.9843 11.5093 27.5603 10.3253 28.7123 9.40802C29.8643 8.46932 31.4856 8.00002 33.5763 8.00002ZM47.8245 8.32002V24.32H43.6645V8.32002H47.8245ZM45.7445 0C46.4698 0 47.0565 0.213329 47.5045 0.640019C47.9525 1.06662 48.1765 1.62132 48.1765 2.30402C48.1765 2.98662 47.9525 3.55202 47.5045 4.00002C47.0565 4.42662 46.4698 4.64002 45.7445 4.64002C45.0192 4.64002 44.4325 4.42662 43.9845 4.00002C43.5365 3.55202 43.3125 2.98662 43.3125 2.30402C43.3125 1.62132 43.5365 1.06662 43.9845 0.640019C44.4325 0.213329 45.0192 0 45.7445 0ZM59.4575 32C57.9428 32 56.5348 31.7866 55.2335 31.36C53.9535 30.9333 52.8442 30.368 51.9055 29.664L53.4415 26.4C55.0628 27.7226 56.9828 28.384 59.2015 28.384C60.7375 28.384 61.9108 27.9786 62.7215 27.168C63.5535 26.3573 63.9695 25.1946 63.9695 23.68V22.368C63.3722 23.0933 62.6362 23.6586 61.7615 24.064C60.9082 24.448 59.9482 24.64 58.8815 24.64C57.3882 24.64 56.0548 24.2986 54.8815 23.616C53.7082 22.912 52.7908 21.9306 52.1295 20.672C51.4895 19.4133 51.1695 17.9626 51.1695 16.32C51.1695 14.6773 51.4895 13.2266 52.1295 11.968C52.7908 10.7093 53.7082 9.73862 54.8815 9.05602C56.0548 8.35202 57.3882 8.00002 58.8815 8.00002C59.9695 8.00002 60.9508 8.21332 61.8255 8.64002C62.7215 9.04532 63.4682 9.63202 64.0655 10.4L64.2255 8.32002H68.1295V23.68C68.1295 25.344 67.7775 26.8053 67.0735 28.064C66.3695 29.3226 65.3562 30.2933 64.0335 30.976C62.7322 31.6586 61.2068 32 59.4575 32ZM59.8095 21.024C61.1535 21.024 62.2308 20.5973 63.0415 19.744C63.8735 18.8693 64.2895 17.728 64.2895 16.32C64.2895 14.8906 63.8735 13.7493 63.0415 12.896C62.2308 12.0213 61.1535 11.584 59.8095 11.584C58.4655 11.584 57.3775 12.0213 56.5455 12.896C55.7348 13.7493 55.3295 14.8906 55.3295 16.32C55.3295 17.728 55.7348 18.8693 56.5455 19.744C57.3775 20.5973 58.4655 21.024 59.8095 21.024ZM72.2858 0H76.4458V10.784C77.0218 9.86662 77.7578 9.17332 78.6537 8.70402C79.5711 8.23462 80.5738 8.00002 81.6618 8.00002C83.4111 8.00002 84.8191 8.58662 85.8858 9.76002C86.9524 10.912 87.4858 12.512 87.4858 14.56V24.32H83.3258V15.264C83.3258 14.0693 83.0484 13.1626 82.4938 12.544C81.9391 11.904 81.1498 11.584 80.1258 11.584C79.0591 11.584 78.1738 11.9253 77.4698 12.608C76.7871 13.2906 76.4458 14.2826 76.4458 15.584V24.32H72.2858V0ZM89.653 8.32002H90.357C91.2317 8.32002 91.893 8.16002 92.341 7.84002C92.789 7.49862 93.141 6.92262 93.397 6.11202L94.037 3.84002H96.597V8.32002H101.333V11.904H96.597V18.784C96.597 20.2773 97.3543 21.024 98.869 21.024C99.53 21.024 100.149 20.864 100.725 20.544L101.333 23.712C100.288 24.3306 99.029 24.64 97.557 24.64C95.9143 24.64 94.645 24.2133 93.749 23.36C92.8743 22.4853 92.437 21.2053 92.437 19.52V11.904H89.653V8.32002Z" fill="white"/>
</svg>
