<svg width="110" height="40" viewBox="0 0 110 40" fill="none" xmlns="http://www.w3.org/2000/svg">
<g filter="url(#filter0_d_2335_4432)">
<path d="M8.512 8.32002V24.32H4.352V8.32002H8.512ZM6.432 0C7.15733 0 7.744 0.213329 8.192 0.640019C8.64 1.06662 8.864 1.62132 8.864 2.30402C8.864 2.98662 8.64 3.55202 8.192 4.00002C7.744 4.42662 7.15733 4.64002 6.432 4.64002C5.70667 4.64002 5.12 4.42662 4.672 4.00002C4.224 3.55202 4 2.98662 4 2.30402C4 1.62132 4.224 1.06662 4.672 0.640019C5.12 0.213329 5.70667 0 6.432 0ZM23.857 15.264C23.857 14.0693 23.5797 13.1626 23.025 12.544C22.4703 11.904 21.681 11.584 20.657 11.584C19.5903 11.584 18.705 11.9253 18.001 12.608C17.3183 13.2906 16.977 14.2826 16.977 15.584V24.32H12.817V8.32002H16.977V10.784C17.553 9.86662 18.289 9.17332 19.185 8.70402C20.1023 8.23462 21.105 8.00002 22.193 8.00002C23.9423 8.00002 25.3503 8.58662 26.417 9.76002C27.4837 10.912 28.017 12.512 28.017 14.56V24.32H23.857V15.264ZM37.5763 8.00002C38.7283 8.00002 39.8589 8.16002 40.9683 8.48002C42.0776 8.77862 43.0483 9.19462 43.8803 9.72802L42.5043 12.768C41.7576 12.3413 40.9469 12 40.0723 11.744C39.1976 11.488 38.3656 11.36 37.5763 11.36C36.7443 11.36 36.1256 11.4986 35.7203 11.776C35.3363 12.032 35.1443 12.3413 35.1443 12.704C35.1443 13.0666 35.3789 13.3866 35.8483 13.664C36.3176 13.92 37.2883 14.2293 38.7603 14.592C40.6803 15.0613 42.0989 15.7013 43.0163 16.512C43.9336 17.3226 44.3923 18.3893 44.3923 19.712C44.3923 20.6506 44.1256 21.4933 43.5923 22.24C43.0803 22.9866 42.3229 23.5733 41.3203 24C40.3389 24.4266 39.1549 24.64 37.7682 24.64C36.4243 24.64 35.1443 24.48 33.9283 24.16C32.7336 23.8186 31.6883 23.328 30.7923 22.688L31.9443 19.328C32.8189 19.9253 33.7789 20.4053 34.8243 20.768C35.8909 21.1093 36.8723 21.28 37.7682 21.28C38.5576 21.28 39.1656 21.1626 39.5923 20.928C40.0189 20.672 40.2323 20.3626 40.2323 20C40.2323 19.6373 39.9763 19.296 39.4643 18.976C38.9523 18.656 38.0029 18.3253 36.6163 17.984C34.6749 17.4933 33.2456 16.8533 32.3283 16.064C31.4323 15.2533 30.9843 14.2186 30.9843 12.96C30.9843 11.5093 31.5603 10.3253 32.7123 9.40802C33.8643 8.46932 35.4856 8.00002 37.5763 8.00002ZM51.8245 8.32002V24.32H47.6645V8.32002H51.8245ZM49.7445 0C50.4698 0 51.0565 0.213329 51.5045 0.640019C51.9525 1.06662 52.1765 1.62132 52.1765 2.30402C52.1765 2.98662 51.9525 3.55202 51.5045 4.00002C51.0565 4.42662 50.4698 4.64002 49.7445 4.64002C49.0192 4.64002 48.4325 4.42662 47.9845 4.00002C47.5365 3.55202 47.3125 2.98662 47.3125 2.30402C47.3125 1.62132 47.5365 1.06662 47.9845 0.640019C48.4325 0.213329 49.0192 0 49.7445 0ZM63.4575 32C61.9428 32 60.5348 31.7866 59.2335 31.36C57.9535 30.9333 56.8442 30.368 55.9055 29.664L57.4415 26.4C59.0628 27.7226 60.9828 28.384 63.2015 28.384C64.7375 28.384 65.9108 27.9786 66.7215 27.168C67.5535 26.3573 67.9695 25.1946 67.9695 23.68V22.368C67.3722 23.0933 66.6362 23.6586 65.7615 24.064C64.9082 24.448 63.9482 24.64 62.8815 24.64C61.3882 24.64 60.0548 24.2986 58.8815 23.616C57.7082 22.912 56.7908 21.9306 56.1295 20.672C55.4895 19.4133 55.1695 17.9626 55.1695 16.32C55.1695 14.6773 55.4895 13.2266 56.1295 11.968C56.7908 10.7093 57.7082 9.73862 58.8815 9.05602C60.0548 8.35202 61.3882 8.00002 62.8815 8.00002C63.9695 8.00002 64.9508 8.21332 65.8255 8.64002C66.7215 9.04532 67.4682 9.63202 68.0655 10.4L68.2255 8.32002H72.1295V23.68C72.1295 25.344 71.7775 26.8053 71.0735 28.064C70.3695 29.3226 69.3562 30.2933 68.0335 30.976C66.7322 31.6586 65.2068 32 63.4575 32ZM63.8095 21.024C65.1535 21.024 66.2308 20.5973 67.0415 19.744C67.8735 18.8693 68.2895 17.728 68.2895 16.32C68.2895 14.8906 67.8735 13.7493 67.0415 12.896C66.2308 12.0213 65.1535 11.584 63.8095 11.584C62.4655 11.584 61.3775 12.0213 60.5455 12.896C59.7348 13.7493 59.3295 14.8906 59.3295 16.32C59.3295 17.728 59.7348 18.8693 60.5455 19.744C61.3775 20.5973 62.4655 21.024 63.8095 21.024ZM76.2858 0H80.4458V10.784C81.0218 9.86662 81.7578 9.17332 82.6537 8.70402C83.5711 8.23462 84.5738 8.00002 85.6618 8.00002C87.4111 8.00002 88.8191 8.58662 89.8858 9.76002C90.9524 10.912 91.4858 12.512 91.4858 14.56V24.32H87.3258V15.264C87.3258 14.0693 87.0484 13.1626 86.4938 12.544C85.9391 11.904 85.1498 11.584 84.1258 11.584C83.0591 11.584 82.1738 11.9253 81.4698 12.608C80.7871 13.2906 80.4458 14.2826 80.4458 15.584V24.32H76.2858V0ZM93.653 8.32002H94.357C95.2317 8.32002 95.893 8.16002 96.341 7.84002C96.789 7.49862 97.141 6.92262 97.397 6.11202L98.037 3.84002H100.597V8.32002H105.333V11.904H100.597V18.784C100.597 20.2773 101.354 21.024 102.869 21.024C103.53 21.024 104.149 20.864 104.725 20.544L105.333 23.712C104.288 24.3306 103.029 24.64 101.557 24.64C99.9143 24.64 98.645 24.2133 97.749 23.36C96.8743 22.4853 96.437 21.2053 96.437 19.52V11.904H93.653V8.32002Z" fill="white"/>
</g>
<defs>
<filter id="filter0_d_2335_4432" x="0" y="0" width="109.333" height="40" filterUnits="userSpaceOnUse" color-interpolation-filters="sRGB">
<feFlood flood-opacity="0" result="BackgroundImageFix"/>
<feColorMatrix in="SourceAlpha" type="matrix" values="0 0 0 0 0 0 0 0 0 0 0 0 0 0 0 0 0 0 127 0" result="hardAlpha"/>
<feOffset dy="4"/>
<feGaussianBlur stdDeviation="2"/>
<feComposite in2="hardAlpha" operator="out"/>
<feColorMatrix type="matrix" values="0 0 0 0 0 0 0 0 0 0 0 0 0 0 0 0 0 0 0.25 0"/>
<feBlend mode="normal" in2="BackgroundImageFix" result="effect1_dropShadow_2335_4432"/>
<feBlend mode="normal" in="SourceGraphic" in2="effect1_dropShadow_2335_4432" result="shape"/>
</filter>
</defs>
</svg>
