<svg width="29" height="31" viewBox="0 0 29 31" fill="none" xmlns="http://www.w3.org/2000/svg">
<path d="M11.1984 19.645L4.65251 23.0714C4.05385 23.3847 3.3364 22.9505 3.33636 22.2748L3.33595 16.2538C3.3359 15.5431 4.12149 15.1133 4.71999 15.4965L11.1984 19.645L15.2454 17.5266L12.5573 12.2254C12.1205 11.3638 13.1642 10.5135 13.9196 11.1155L19.3011 15.4036L22.9364 13.5008L20.6787 6.63794C20.3804 5.73116 21.5142 5.0457 22.1785 5.73123L26.5913 10.2851C27.0093 10.7165 26.8948 11.4288 26.3625 11.7074L22.9364 13.5008L24.135 17.1441C24.4141 17.9927 23.4191 18.685 22.7205 18.1283L19.3011 15.4036L15.2454 17.5266L17.2895 21.5575C17.7037 22.3745 16.774 23.2153 16.0026 22.7214L11.1984 19.645Z" fill="black"/>
</svg>
