<svg width="800" height="400" viewBox="0 0 800 400" fill="none" xmlns="http://www.w3.org/2000/svg">
<g clip-path="url(#clip0_2381_9430)">
<path d="M175.225 69.1685C188.106 76.7253 199.475 86.4299 205.836 100.191L257.993 69.1685L318.817 98.3617L332.652 151.737L208.142 306.93L181.586 332.225L82.3598 210.6C77.2713 204.793 72.2623 198.191 67.4123 190.873C62.3238 183.634 58.1893 175.998 55.0885 167.964C51.6697 159.93 50 152.055 50 144.259C50 126.521 53.3393 111.248 60.177 98.3617C66.6967 85.4753 76.0787 75.5321 88.1639 68.4526C100.329 61.4526 114.64 57.873 131.178 57.873C147.477 57.873 162.107 61.6912 175.225 69.1685Z" fill="#BD114F"/>
<path d="M186.36 195.09H103.83V297.385H186.36V195.09Z" fill="#BD114F"/>
<path d="M184.842 336.998C188.5 340.577 193.032 342.407 198.359 342.407L333.125 340.498C338.532 340.498 343.461 339.782 346.641 335.009C350.776 328.805 339.804 305.021 325.333 303.35C310.942 301.6 270.473 301.521 247.415 299.452C245.587 299.293 245.109 296.668 245.746 294.918C247.415 289.986 314.52 210.521 314.52 210.521C319.609 204.714 324.618 198.111 329.468 190.873C334.556 183.555 338.691 175.918 341.871 167.884C345.21 159.85 346.959 151.975 346.959 144.18C346.959 126.441 343.541 111.168 336.703 98.2819C330.183 85.3956 320.801 75.4524 308.716 68.4524C296.551 61.3728 282.24 57.8728 265.702 57.8728C249.482 57.8728 234.773 61.6115 221.655 69.1683C208.774 76.6456 197.405 86.4296 191.044 100.111C187.307 108.146 185.16 121.191 187.307 130.021C189.136 137.259 190.964 139.089 196.45 140.918C201.937 142.748 203.686 138.771 205.514 130.021C207.343 121.271 210.364 111.407 214.658 104.486C220.144 95.7365 230.241 89.2933 238.351 86.2706C245.189 83.7251 256.559 81.5774 265.702 82.6115C282.001 84.441 293.53 90.2478 302.037 100.111C310.624 109.975 317.223 126.361 315.315 138.771L315.236 139.168C314.123 146.805 312.532 157.225 308.716 164.623C304.82 172.18 292.973 187.055 285.659 195.566L184.842 310.748C181.503 314.168 179.754 318.464 179.754 323.873C179.754 328.964 181.503 333.339 184.842 336.998Z" fill="white"/>
<path d="M84.9852 237.566C84.9852 236.691 84.9852 233.589 84.9852 228.419C85.2238 222.93 85.3033 216.805 85.3033 210.044C85.5418 203.044 85.5418 196.203 85.3033 189.68C85.3033 182.919 85.0648 177.669 84.6672 173.93C84.1902 169.157 84.1107 164.862 84.3492 161.123C84.7467 157.464 84.9852 153.248 84.9852 148.714C84.9852 145.612 85.0648 142.907 85.3033 140.521C85.5418 137.896 86.0984 135.669 86.9729 133.919C87.8475 131.93 89.1992 130.578 91.1869 129.703C93.1746 128.589 96.0369 128.032 99.6943 128.032C103.193 128.032 106.611 129.225 109.871 131.612C113.37 134.078 115.437 137.339 116.073 141.475L121.002 206.703L122.036 290.066L165.925 288.714C167.435 288.714 169.661 289.51 172.524 291.021C175.545 292.294 177.056 293.964 177.056 295.953C177.056 297.703 176.34 299.214 174.75 300.487C173.239 301.6 171.411 302.635 169.184 303.51C167.276 304.146 165.129 304.703 162.983 305.1C160.995 305.339 159.564 305.419 158.689 305.419C156.94 305.657 154.316 305.896 150.818 306.135C147.32 306.135 143.662 306.135 139.687 306.135C136.029 306.135 132.372 306.135 128.874 306.135C125.375 306.135 122.752 306.135 121.002 306.135C118.856 307.169 116.232 307.646 113.131 307.407C110.11 307.169 107.566 307.089 105.657 307.089H95.4803C93.7311 307.089 91.7434 306.612 89.5967 305.737C87.609 304.703 86.0984 303.51 84.9852 302.157V237.566Z" fill="white"/>
<path d="M370.101 289.351C370.101 285.215 370.181 281.238 370.419 277.499C370.817 273.84 371.055 270.022 371.055 266.045V256.181C371.055 255.306 370.976 253.795 370.737 251.647C370.499 249.26 370.26 246.795 370.101 244.408C370.101 241.783 369.942 239.397 369.704 237.17C369.545 235.022 369.386 233.51 369.386 232.635V198.192V165.022C369.386 158.897 369.704 153.01 370.419 147.363C371.294 141.476 371.453 135.67 371.055 129.942C375.428 124.931 380.676 121.908 386.798 120.795C392.92 119.442 399.122 118.806 405.482 118.806C414.626 118.806 422.974 120.635 430.369 124.374C437.842 127.874 444.044 134.238 449.053 143.385C452.79 150.624 455.414 157.385 456.924 163.749C458.435 169.874 459.23 176.954 459.23 185.067V194.215C457.481 199.704 455.493 204.715 453.346 209.329C451.359 213.704 448.178 217.76 443.805 221.42C442.295 222.533 440.466 223.647 438.24 224.76C436.093 225.635 434.503 226.59 433.628 227.704C441.977 232.476 447.94 238.204 451.677 244.726C455.652 251.329 457.56 259.204 457.56 268.351V276.863C457.163 279.488 456.05 282.431 454.3 285.772C452.551 288.795 450.802 291.181 449.053 292.931C444.68 296.67 440.864 299.374 437.604 301.124C434.344 302.874 431.005 304.226 427.745 305.101C424.485 305.976 420.987 306.374 417.25 306.374C413.592 306.374 409.06 306.374 403.813 306.374H392.046C390.296 305.976 388.945 305.499 388.07 305.101C387.434 304.624 386.798 304.226 386.162 303.749C385.685 303.113 385.049 302.556 384.174 302.158C383.538 301.442 382.425 300.806 380.914 300.17C379.563 299.533 378.37 299.056 377.257 298.817C376.382 298.658 375.508 298.42 374.633 298.181C373.997 297.942 373.202 297.624 372.328 297.226C371.692 296.749 370.976 296.033 370.101 294.92V289.351ZM397.611 284.101L398.247 288.317C399.599 288.795 400.791 289.351 401.905 289.988C402.938 290.465 403.972 290.863 404.846 291.34C405.721 291.738 406.596 292.056 407.47 292.295H408.106C411.843 292.295 415.5 290.863 419.237 287.999C422.974 285.215 424.803 281.476 424.803 276.863C424.803 274.476 425.041 271.931 425.439 269.306C426.155 266.681 425.916 262.783 424.803 257.533C423.69 251.17 420.669 246.476 415.66 243.454C410.571 240.351 405.482 238.84 400.235 238.84H398.247C397.85 245.204 397.611 250.851 397.611 255.863C397.611 260.954 397.611 266.522 397.611 272.647V284.101ZM397.611 220.147C406.993 216.408 413.592 211.317 417.25 204.715C421.225 198.192 423.133 189.999 423.133 180.135C423.133 176.397 423.054 171.863 422.815 166.374C422.656 160.885 421.861 155.635 420.589 150.624C419.237 145.613 417.17 141.317 414.308 137.817C411.446 134.079 407.47 132.249 402.223 132.249C397.611 132.249 393 133.124 388.388 134.874V137.499C388.388 140.999 388.786 144.26 389.422 147.363C390.296 150.385 390.932 153.249 391.41 155.874L397.611 220.147ZM474.893 275.59C474.416 266.363 473.621 256.738 472.587 246.715C471.713 236.613 470.6 227.067 469.328 217.84V193.579V168.999C469.328 168.522 469.328 167.249 469.328 165.022C469.487 162.874 469.646 160.488 469.646 157.863C469.805 155.238 470.043 152.692 470.282 150.306C470.52 147.681 470.679 145.851 470.918 144.738C471.554 139.249 474.337 135.192 479.107 132.567C484.116 129.942 489.841 128.192 496.201 127.317C502.721 126.283 509.241 125.806 515.84 126.045C522.359 126.045 527.607 126.045 531.582 126.045H529.595C531.105 126.045 533.173 126.363 535.796 126.999C538.659 127.476 540.09 128.67 540.09 130.579C540.09 132.17 539.454 133.363 538.102 134.238C537.068 134.874 535.717 135.192 534.206 135.192C534.206 135.192 532.855 135.431 530.231 135.829C527.607 136.067 524.586 136.545 521.087 137.181C517.827 137.579 514.488 138.135 511.228 138.851C508.207 139.249 506.299 139.567 505.663 139.806C502.8 140.442 500.972 141.954 500.097 144.42V152.613V161.442C500.336 164.942 500.574 169.397 500.733 174.885C501.21 180.374 501.528 185.783 501.767 191.272C501.926 196.522 502.164 201.215 502.403 205.351C502.641 209.329 502.721 211.397 502.721 211.635L504.073 215.215C508.366 215.215 512.898 215.135 517.509 214.897C522.041 214.499 526.335 214.101 530.231 213.942C533.57 213.704 536.512 214.26 539.136 215.533C541.918 216.885 543.35 218.635 543.35 220.783C543.35 222.533 542.714 223.965 541.362 225.079C540.328 225.954 538.897 226.67 537.148 227.385C535.399 227.783 533.65 228.26 531.9 228.658C530.151 228.897 528.8 229.135 527.925 229.295C524.665 229.772 522.28 230.17 520.769 230.647C519.259 230.885 517.827 231.045 516.476 231.283C515.204 231.283 513.614 231.283 511.864 231.283C510.354 231.283 507.968 231.283 504.709 231.283C504.709 239.795 504.55 248.226 504.391 256.579C504.152 264.613 504.073 272.965 504.073 281.476C507.332 281.476 509.797 281.476 511.546 281.476C513.296 281.238 514.965 281.158 516.476 281.158C517.987 280.92 519.656 280.84 521.405 280.84C523.393 280.601 526.017 280.522 529.277 280.522C530.39 280.522 531.9 280.601 533.888 280.84C536.035 280.999 538.102 281.476 540.09 282.113C542.237 282.59 544.145 283.306 545.655 284.42C547.166 285.533 547.961 287.045 547.961 289.033C547.961 290.783 547.325 292.295 545.973 293.567C544.701 294.681 543.032 295.715 541.044 296.59C539.295 297.226 537.546 297.863 535.796 298.499C534.047 298.976 532.775 299.295 531.9 299.533H511.228H504.073C503.596 299.533 502.641 299.533 501.051 299.533C499.779 299.295 498.268 299.215 496.519 299.215C494.929 298.976 493.419 298.817 491.908 298.817C490.556 298.658 489.602 298.499 488.966 298.499C486.581 298.499 483.957 298.101 481.095 297.226C478.232 296.113 476.165 294.601 474.893 292.613V275.59ZM551.459 296.192C551.459 292.533 551.698 287.522 552.096 281.158C552.811 274.556 553.447 268.272 554.083 262.147C554.719 255.783 555.276 250.295 555.753 245.76C556.389 241.147 556.707 238.76 556.707 238.522L569.19 146.329C569.19 146.17 569.269 145.295 569.508 143.704C569.905 142.192 570.382 140.442 570.78 138.454C571.257 136.545 571.655 134.635 572.132 132.885C572.529 130.976 572.927 129.545 573.086 128.67C573.324 127.556 573.563 126.363 573.801 125.01C574.199 123.499 574.596 122.067 575.073 120.795C575.471 119.442 576.187 118.408 577.061 117.533C577.936 116.658 579.128 116.181 580.639 116.181H593.122C594.871 116.181 596.382 117.056 597.654 118.806C599.005 120.556 599.959 122.226 600.675 123.738C601.311 125.726 602.186 128.192 603.299 131.295C604.571 134.079 605.923 136.942 607.195 139.806C608.546 142.67 609.58 145.295 610.454 147.681C611.329 149.829 611.806 151.022 611.806 151.26C619.2 175.522 626.674 199.624 634.068 223.408C641.542 247.272 647.505 270.34 652.117 292.613V294.283C652.117 297.783 650.447 300.408 647.187 302.158C644.166 303.908 641.383 304.783 638.998 304.783C638.123 304.783 636.692 304.783 634.705 304.783C632.796 304.545 630.65 304.306 628.503 304.067C626.515 303.67 624.686 303.033 622.937 302.158C621.427 301.283 620.552 300.09 620.314 298.499L611.091 247.988C606.797 247.988 601.391 248.147 595.03 248.385C588.987 248.545 583.581 248.704 578.969 248.704L577.697 249.658C576.823 267.158 574.755 284.499 571.495 301.84L570.144 303.749C569.746 304.226 568.713 305.181 567.202 306.692C565.93 308.045 565.055 308.92 564.578 309.317H563.624C560.126 309.317 557.184 308.363 554.719 306.374C552.573 304.465 551.459 302.238 551.459 299.851V296.192ZM606.241 230.01V225.079C606.002 224.204 605.684 222.772 605.207 220.783C605.048 218.635 604.65 216.408 604.253 214.26C603.776 212.033 603.378 210.124 602.901 208.374C602.742 206.385 602.504 205.033 602.265 204.397C601.868 202.408 600.993 199.385 599.641 195.249C598.528 190.874 597.256 186.34 595.745 181.806C594.394 177.192 593.122 172.817 591.77 168.681C590.498 164.465 589.464 161.442 588.828 159.454L579.685 230.01H606.241ZM682.727 292.295V284.101C682.727 281.476 682.727 277.34 682.727 271.613C682.966 265.726 683.125 259.204 683.125 251.965C683.284 244.726 683.523 237.17 683.761 229.295C684 221.26 684.159 213.624 684.397 206.385C684.636 199.147 684.874 192.704 685.033 187.056C685.272 181.329 685.51 177.113 685.749 174.249C685.749 168.76 686.067 163.431 686.703 158.181C687.577 152.931 687.895 147.363 687.657 141.476H661.101C659.591 141.476 657.841 141.079 655.854 140.442C654.104 139.567 653.23 138.295 653.23 136.545C653.23 134.954 653.627 133.92 654.264 133.204C655.138 132.567 656.41 131.931 658.159 131.295C664.759 131.295 670.96 131.056 676.844 130.579C682.966 130.181 689.009 129.704 694.892 129.306C700.776 128.67 706.818 128.113 712.941 127.635C719.063 127.238 725.503 126.999 732.261 126.999H743.392L749.673 130.26V132.567C749.673 134.795 748.322 136.306 745.698 137.181C743.313 138.056 740.371 138.692 736.872 139.17C732.5 139.806 727.888 140.045 723.118 139.806C718.506 139.567 715.405 139.806 713.895 140.442V167.965C713.895 180.454 714.213 192.783 714.928 205.033C715.564 217.283 715.882 229.295 715.882 241.147C715.882 246.795 715.882 252.204 715.882 257.215C716.121 262.226 716.2 267.158 716.2 271.931C716.2 276.783 715.962 281.556 715.564 286.408C715.326 291.181 714.769 296.351 713.895 301.84C712.782 303.113 711.43 304.226 709.681 305.101C707.932 305.738 706.262 306.295 704.751 306.692H696.562C694.097 306.692 691.632 306.692 689.009 306.692C686.385 306.533 684.318 304.863 682.727 301.84V292.295Z" fill="white"/>
</g>
<defs>
<clipPath id="clip0_2381_9430">
<rect width="700" height="286.364" fill="white" transform="translate(50 57)"/>
</clipPath>
</defs>
</svg>
