<svg width="400" height="400" viewBox="0 0 400 400" fill="none" xmlns="http://www.w3.org/2000/svg">
<path d="M174.188 62.7481C187.682 70.6647 199.593 80.8314 206.257 95.2481L260.898 62.7481L324.618 93.3314L339.111 149.248L208.672 311.831L180.852 338.331L76.9008 210.915C71.5699 204.831 66.3224 197.915 61.2414 190.248C55.9106 182.665 51.5793 174.665 48.3308 166.248C44.7492 157.831 43 149.581 43 141.415C43 122.831 46.4984 106.831 53.6617 93.3314C60.4918 79.8314 70.3205 69.4147 82.9813 61.9981C95.7253 54.6647 110.718 50.9147 128.043 50.9147C145.119 50.9147 160.445 54.9147 174.188 62.7481Z" fill="#BD114F"/>
<path d="M185.853 194.665H99.3938V301.832H185.853V194.665Z" fill="#BD114F"/>
<path d="M184.264 343.331C188.095 347.081 192.843 348.998 198.424 348.998L339.608 346.998C345.272 346.998 350.436 346.248 353.768 341.248C358.099 334.748 346.604 309.831 331.445 308.081C316.369 306.248 273.972 306.164 249.817 303.998C247.901 303.831 247.401 301.081 248.067 299.248C249.817 294.081 320.117 210.831 320.117 210.831C325.448 204.748 330.695 197.831 335.776 190.248C341.107 182.581 345.438 174.581 348.77 166.164C352.268 157.748 354.101 149.498 354.101 141.331C354.101 122.748 350.519 106.748 343.356 93.2478C336.526 79.7478 326.697 69.3311 314.036 61.9978C301.292 54.5811 286.299 50.9145 268.974 50.9145C251.982 50.9145 236.573 54.8311 222.829 62.7478C209.336 70.5811 197.424 80.8311 190.761 95.1645C186.846 103.581 184.597 117.248 186.846 126.498C188.762 134.081 190.678 135.998 196.425 137.914C202.172 139.831 204.005 135.664 205.92 126.498C207.836 117.331 211.001 106.998 215.499 99.7478C221.247 90.5811 231.825 83.8311 240.321 80.6645C247.484 77.9978 259.395 75.7478 268.974 76.8311C286.05 78.7478 298.127 84.8311 307.04 95.1645C316.035 105.498 322.949 122.664 320.95 135.664L320.867 136.081C319.7 144.081 318.035 154.998 314.036 162.748C309.955 170.664 297.544 186.248 289.881 195.164L184.264 315.831C180.766 319.414 178.933 323.914 178.933 329.581C178.933 334.914 180.766 339.498 184.264 343.331Z" fill="white"/>
<path d="M79.6507 239.165C79.6507 238.248 79.6507 234.998 79.6507 229.582C79.9006 223.832 79.9839 217.415 79.9839 210.332C80.2338 202.998 80.2338 195.832 79.9839 188.998C79.9839 181.915 79.734 176.415 79.3175 172.498C78.8178 167.498 78.7345 162.998 78.9843 159.082C79.4008 155.248 79.6507 150.832 79.6507 146.082C79.6507 142.832 79.734 139.998 79.9839 137.498C80.2338 134.748 80.8168 132.415 81.7331 130.582C82.6493 128.498 84.0653 127.082 86.1477 126.165C88.23 124.998 91.2286 124.415 95.0601 124.415C98.7251 124.415 102.307 125.665 105.722 128.165C109.387 130.748 111.552 134.165 112.219 138.498L117.383 206.832L118.466 294.165L164.444 292.748C166.027 292.748 168.359 293.582 171.358 295.165C174.523 296.498 176.105 298.248 176.105 300.332C176.105 302.165 175.356 303.748 173.69 305.082C172.107 306.248 170.192 307.332 167.859 308.248C165.86 308.915 163.611 309.498 161.362 309.915C159.28 310.165 157.781 310.248 156.865 310.248C155.032 310.498 152.283 310.748 148.618 310.998C144.953 310.998 141.122 310.998 136.957 310.998C133.126 310.998 129.294 310.998 125.629 310.998C121.964 310.998 119.215 310.998 117.383 310.998C115.134 312.082 112.385 312.582 109.137 312.332C105.972 312.082 103.306 311.998 101.307 311.998H90.6455C88.8131 311.998 86.7307 311.498 84.4818 310.582C82.3994 309.498 80.8168 308.248 79.6507 306.832V239.165Z" fill="white"/>
</svg>
